<?xml version="1.0" encoding="utf-8"?>
<!-- Generator: Adobe Illustrator 25.0.0, SVG Export Plug-In . SVG Version: 6.00 Build 0)  -->
<svg version="1.1" id="Layer_1" xmlns="http://www.w3.org/2000/svg" xmlns:xlink="http://www.w3.org/1999/xlink" x="0px" y="0px"
	 viewBox="0 0 72 72" style="enable-background:new 0 0 72 72;" xml:space="preserve">
<style type="text/css">
	.st0{fill:#161616;}
</style>
<g>
	<path class="st0" d="M66,6.1c0,0,0.1,0,0.1,0.1s0.1,0.1,0.1,0.1c0,19.4,0,39,0,58.3c0,0,0,0.1-0.1,0.1S66,64.8,66,64.8
		c-15.2,0-30.4,0-45.6,0h-9.5H6.5v-3.9c0-18.2,0-36.4,0-54.6c0,0,0-0.1,0.1-0.1c0.1-0.1,0.1-0.1,0.1-0.1c9.9,0,19.8,0,29.7,0
		S56.1,6.1,66,6.1L66,6.1 M66,0.1L66,0.1c-9.9,0-19.8,0-29.7,0s-19.8,0-29.7,0c0,0,0,0,0,0c-3.4,0-6.2,2.8-6.2,6.2
		c0,19.8,0,39.5,0,59.3c0,2.8,2.3,5.2,5.2,5.2c4.9,0,9.8,0,14.7,0c15.2,0,30.4,0,45.6,0c0,0,0,0,0,0c3.4,0,6.2-2.8,6.2-6.2
		c0-19.4,0-38.9,0-58.3C72.1,2.9,69.4,0.1,66,0.1L66,0.1z"/>
</g>
<g>
	<path class="st0" d="M48.4,25.4c-1.6,0-3.2,0-4.8,0c-0.9,0-1.2-0.5-1.3-1.2c-0.1-0.9,0.4-1.4,1.2-1.4c3.3,0,6.6,0,9.9,0
		c0.8,0,1.1,0.6,1.1,1.3c0,0.7-0.3,1.3-1.2,1.3C51.7,25.4,50,25.4,48.4,25.4z"/>
	<path class="st0" d="M33.4,35c-0.8-0.5-0.7-0.9,0-1.4c1.7-1.1,2.4-2.8,2.4-4.7c0-4.7-2.8-7.6-7.5-7.7c-4.5-0.1-9.1,0-13.6-0.1
		c-1.1,0-1.3,0.4-1.3,1.4c0.1,4.3,0,8.6,0,12.9c0,4.3,0,8.7,0,13c0,1,0.3,1.2,1.2,1.2c3.3,0,6.7,0,10,0c1.7,0,3.5,0.1,5.2-0.2
		c3.6-0.7,5.7-2.9,6.6-6.2C37.4,39.8,36.3,37,33.4,35z M19.8,26.1c1.1,0,2.2,0,3.6,0c1.3,0.1,2.8-0.1,4.4,0.2
		c1.6,0.3,2.3,0.9,2.3,2.6c0,1.3-0.4,2.4-1.8,2.9c-0.9,0.3-1.9,0.5-2.9,0.5c-1.8,0-3.6,0-5.5,0c-0.8,0-1.1-0.3-1.1-1.1
		c0-1.4,0-2.9,0-4.3C18.8,26.3,19.1,26.1,19.8,26.1z M26.8,44.5c-1.1,0-2.1,0-3.2,0c-1.2,0-2.5,0-3.7,0c-0.8,0-1.1-0.2-1-1
		c0-1.8,0-3.7,0-5.5c0-0.7,0.2-1,1-1c2.4,0,4.8,0,7.1,0c2.4,0.1,3.7,1.6,3.6,4.2C30.5,43.2,28.9,44.5,26.8,44.5z"/>
	<path class="st0" d="M46.1,40.7c1.8,0,3.6,0,5.4,0c2,0,3.9,0,5.8,0c1.5,0,1.9-0.5,2-2c0-0.9-0.1-1.8-0.3-2.7
		c-0.4-2.6-1.6-4.7-3.8-6.2c-2.3-1.6-4.8-1.9-7.5-1.8c-3.6,0.1-6.3,1.8-8,4.9c-1.6,3-1.9,6.2-1.1,9.6c0.5,2.3,1.6,4.3,3.6,5.7
		c3.7,2.6,7.7,2.6,11.7,1.2c2.2-0.8,3.7-2.4,4.6-4.5c0.5-1.2,0.3-1.3-0.9-1.3c-0.9,0-1.8,0-2.8,0c-0.9-0.1-1.5,0.2-2.1,0.8
		c-2,2.1-6.1,2.2-8.1-0.7c-0.5-0.7-0.7-1.5-0.4-2.4C44.6,40.5,45.4,40.7,46.1,40.7z M44.7,34.8c0.8-1.2,1.9-2.1,3.5-2.2
		c1.8-0.1,3.5,0.2,4.5,1.9c0.8,1.4,0.3,2.3-1.3,2.4c-0.9,0-1.8,0-2.8,0c-1,0-1.9,0-2.9,0C44.6,36.8,44,35.8,44.7,34.8z"/>
</g>
</svg>
