<?xml version="1.0" encoding="utf-8"?>
<!-- Generator: Adobe Illustrator 25.0.0, SVG Export Plug-In . SVG Version: 6.00 Build 0)  -->
<svg version="1.1" id="Layer_1" xmlns="http://www.w3.org/2000/svg" xmlns:xlink="http://www.w3.org/1999/xlink" x="0px" y="0px"
	 viewBox="0 0 72 72" style="enable-background:new 0 0 72 72;" xml:space="preserve">
<style type="text/css">
	.st0{fill:#FBFBFB;}
	.st1{fill:#F1F1F1;}
</style>
<rect x="-251.37" y="4.27" width="152.9" height="106.58"/>
<g>
	<path class="st0" d="M65.97,6.12c0.03,0,0.07,0,0.12,0.05c0.05,0.05,0.05,0.09,0.05,0.12c-0.02,19.36-0.02,38.99,0,58.34
		c0,0.03,0,0.07-0.05,0.12c-0.05,0.05-0.09,0.05-0.12,0.05c-15.2-0.02-30.39-0.02-45.59-0.02l-9.52,0l-4.36,0l0-3.88
		c0-18.2,0-36.41-0.02-54.61c0-0.03,0-0.07,0.05-0.12c0.05-0.05,0.09-0.05,0.12-0.05c9.89,0.01,19.78,0.02,29.66,0.02
		S56.08,6.13,65.97,6.12L65.97,6.12 M65.97,0.12C65.97,0.12,65.97,0.12,65.97,0.12c-9.89,0.01-19.78,0.02-29.66,0.02
		S16.54,0.13,6.65,0.12c0,0,0,0-0.01,0c-3.41,0-6.17,2.76-6.16,6.17C0.5,26.07,0.5,45.84,0.5,65.61c0,2.85,2.31,5.17,5.17,5.17
		c4.9,0,9.81,0,14.71,0c15.19,0,30.39,0,45.58,0.02c0,0,0,0,0.01,0c3.41,0,6.17-2.76,6.16-6.17c-0.02-19.44-0.02-38.89,0-58.33
		C72.14,2.89,69.38,0.12,65.97,0.12L65.97,0.12z"/>
</g>
<g>
	<path class="st1" d="M48.36,25.43c-1.59,0-3.18-0.03-4.77,0.01c-0.88,0.02-1.23-0.46-1.29-1.22c-0.07-0.85,0.37-1.4,1.24-1.41
		c3.3-0.03,6.59-0.02,9.89-0.01c0.82,0,1.12,0.63,1.12,1.28c0,0.71-0.3,1.33-1.19,1.34C51.7,25.43,50.03,25.43,48.36,25.43z"/>
	<path class="st1" d="M33.37,34.97c-0.77-0.53-0.69-0.92,0.04-1.41c1.67-1.11,2.39-2.82,2.38-4.7c-0.01-4.7-2.79-7.56-7.54-7.71
		c-4.54-0.14-9.08,0.01-13.62-0.06c-1.1-0.02-1.32,0.36-1.3,1.37c0.05,4.3,0.02,8.6,0.02,12.9c0,4.34,0.03,8.68-0.02,13.02
		c-0.01,0.97,0.3,1.21,1.23,1.2c3.34-0.05,6.69,0.01,10.03-0.03c1.74-0.02,3.48,0.13,5.23-0.19c3.58-0.66,5.71-2.91,6.63-6.23
		C37.38,39.79,36.28,36.97,33.37,34.97z M19.77,26.14c1.11,0.03,2.22,0.01,3.58,0.01c1.29,0.1,2.83-0.12,4.38,0.2
		c1.6,0.33,2.26,0.86,2.33,2.59c0.05,1.27-0.37,2.44-1.76,2.93c-0.93,0.33-1.9,0.51-2.91,0.5c-1.83-0.02-3.65-0.02-5.48,0
		c-0.76,0.01-1.08-0.29-1.06-1.06c0.03-1.43,0.03-2.86,0-4.29C18.84,26.34,19.12,26.12,19.77,26.14z M26.81,44.55
		c-1.07,0-2.14,0-3.22,0c-1.23,0-2.46-0.03-3.69,0.01c-0.75,0.03-1.07-0.18-1.05-1c0.05-1.83,0.04-3.65,0-5.48
		c-0.02-0.73,0.25-0.97,0.97-0.96c2.38,0.03,4.77-0.04,7.15,0.03c2.41,0.06,3.69,1.6,3.61,4.15C30.51,43.19,28.94,44.55,26.81,44.55
		z"/>
	<path class="st1" d="M46.09,40.73c1.79-0.01,3.58,0,5.37,0c1.95,0,3.9,0.03,5.85-0.01c1.48-0.03,1.89-0.51,1.95-1.95
		c0.04-0.92-0.12-1.82-0.26-2.71c-0.41-2.58-1.62-4.67-3.78-6.22c-2.27-1.63-4.82-1.87-7.48-1.77c-3.6,0.13-6.32,1.75-8,4.9
		c-1.61,3.01-1.89,6.25-1.1,9.57c0.55,2.3,1.59,4.29,3.58,5.71c3.68,2.62,7.65,2.62,11.68,1.2c2.16-0.76,3.72-2.39,4.63-4.53
		c0.49-1.16,0.35-1.31-0.88-1.32c-0.92-0.01-1.83,0.05-2.75-0.02c-0.86-0.06-1.5,0.19-2.1,0.83c-2.01,2.13-6.09,2.15-8.11-0.71
		c-0.5-0.71-0.7-1.55-0.38-2.38C44.63,40.52,45.44,40.74,46.09,40.73z M44.68,34.79c0.8-1.25,1.87-2.13,3.47-2.2
		c1.84-0.08,3.5,0.17,4.55,1.92c0.84,1.38,0.33,2.35-1.26,2.39c-0.92,0.02-1.83,0-2.75,0c-0.96,0-1.91,0.04-2.87-0.01
		C44.63,36.83,44.04,35.8,44.68,34.79z"/>
</g>
</svg>
