<?xml version="1.0" encoding="utf-8"?>
<!-- Generator: Adobe Illustrator 25.0.1, SVG Export Plug-In . SVG Version: 6.00 Build 0)  -->
<svg version="1.1" id="Layer_1" xmlns="http://www.w3.org/2000/svg" xmlns:xlink="http://www.w3.org/1999/xlink" x="0px" y="0px"
	 viewBox="0 0 72 72" style="enable-background:new 0 0 72 72;" xml:space="preserve">
<style type="text/css">
	.st0{fill:#FFFFFF;}
</style>
<g>
	<path class="st0" d="M1.5,24.9C1.8,25,2,25.1,2.2,25.2c3.3,1.2,6.6,2.5,9.9,3.7c0.4,0.2,0.6,0.4,0.6,0.8c0,1.1,0,2.2,0,3.3
		c0,0.2-0.1,0.5-0.3,0.7c-0.6,0.6-0.7,1.3-0.2,2.1c0.1,0.1,0.2,0.3,0.2,0.4c0.1,1.1,0.3,2.3,0.2,3.4c-0.1,1.6-0.3,3.2-0.4,4.8
		c-0.3,3-0.6,6-0.9,9c-0.1,0.6,0.2,1,0.7,1.2c1,0.4,2,0.4,3-0.1c0.4-0.2,0.6-0.5,0.6-1c-0.2-2.3-0.4-4.5-0.6-6.8
		c-0.2-2.7-0.8-5.4-0.5-8.1c0.1-0.6,0-1.3,0-2c0-0.3,0.1-0.6,0.3-0.9c0.4-0.7,0.3-1.5-0.2-1.9c-0.3-0.3-0.4-0.6-0.4-1
		c0-0.9,0-1.8,0-2.7c0-0.2,0-0.3,0-0.5c0.2,0.1,0.4,0.1,0.6,0.2c6.9,2.6,13.8,5.1,20.7,7.7c0.4,0.2,0.8,0.2,1.2,0
		c11.1-4.1,22.2-8.3,33.2-12.4c0.2-0.1,0.3-0.1,0.5-0.2c-0.3-0.1-0.4-0.2-0.6-0.2c-11.1-4.1-22.2-8.3-33.3-12.4
		c-0.3-0.1-0.7-0.1-1,0C26.2,15.7,17,19.2,7.8,22.6C5.7,23.4,3.7,24.1,1.5,24.9z M18.4,32.8c0,0.3,0,0.5,0,0.6c0,2,0,3.9,0,5.9
		c0,1.8,0.6,3.4,1.8,4.8c1.4,1.7,3.3,2.9,5.3,3.8c5.5,2.3,11.2,2.6,17,1.3c2.8-0.6,5.5-1.8,7.7-3.7c2.1-1.8,3.3-3.9,3.2-6.7
		c-0.1-1.5,0-3.1,0-4.6c0-0.4,0-0.9,0-1.4c-0.2,0.1-0.4,0.1-0.6,0.2c-5.5,2-10.9,4.1-16.4,6.1c-0.3,0.1-0.7,0.1-1,0
		c-3.4-1.2-6.8-2.5-10.2-3.8C23,34.5,20.8,33.6,18.4,32.8z"/>
	<path d="M1.5,24.9c2.2-0.8,4.2-1.6,6.2-2.3c9.2-3.4,18.4-6.9,27.7-10.3c0.3-0.1,0.7-0.1,1,0c11.1,4.1,22.2,8.2,33.3,12.4
		c0.2,0.1,0.3,0.1,0.6,0.2c-0.2,0.1-0.4,0.2-0.5,0.2c-11.1,4.1-22.2,8.2-33.2,12.4c-0.4,0.2-0.8,0.1-1.2,0
		c-6.9-2.6-13.8-5.1-20.7-7.7c-0.2-0.1-0.4-0.1-0.6-0.2c0,0.2,0,0.4,0,0.5c0,0.9,0,1.8,0,2.7c0,0.4,0.1,0.7,0.4,1
		c0.6,0.5,0.6,1.3,0.2,1.9c-0.2,0.3-0.3,0.6-0.3,0.9c0,0.6,0,1.3,0,2c-0.3,2.7,0.3,5.4,0.5,8.1c0.2,2.3,0.4,4.5,0.6,6.8
		c0,0.5-0.1,0.9-0.6,1c-1,0.4-2,0.5-3,0.1c-0.5-0.2-0.8-0.6-0.7-1.2c0.3-3,0.6-6,0.9-9c0.2-1.6,0.4-3.2,0.4-4.8
		c0-1.1-0.1-2.3-0.2-3.4c0-0.1-0.1-0.3-0.2-0.4c-0.5-0.8-0.4-1.5,0.2-2.1c0.2-0.2,0.3-0.4,0.3-0.7c0-1.1,0-2.2,0-3.3
		c0-0.5-0.1-0.7-0.6-0.8c-3.3-1.2-6.6-2.5-9.9-3.7C2,25.1,1.8,25,1.5,24.9z"/>
	<path d="M18.4,32.8c2.3,0.9,4.6,1.7,6.8,2.5c3.4,1.3,6.8,2.5,10.2,3.8c0.3,0.1,0.7,0.1,1,0c5.5-2,10.9-4.1,16.4-6.1
		c0.2-0.1,0.3-0.1,0.6-0.2c0,0.5,0,0.9,0,1.4c0,1.5-0.1,11.1,0,12.6c0.1,2.8-1.1,5-3.2,6.7c-2.3,1.9-4.9,3-7.7,3.7
		c-5.8,1.3-11.5,1.1-17-1.3c-2-0.9-3.9-2.1-5.3-3.8c-1.2-1.4-1.8-3-1.8-4.8c0-2,0-11.9,0-13.9C18.4,33.2,18.4,33.1,18.4,32.8z"/>
</g>
</svg>
