<?xml version="1.0" encoding="utf-8"?>
<!-- Generator: Adobe Illustrator 25.1.0, SVG Export Plug-In . SVG Version: 6.00 Build 0)  -->
<svg version="1.1" id="Layer_1" xmlns="http://www.w3.org/2000/svg" xmlns:xlink="http://www.w3.org/1999/xlink" x="0px" y="0px"
	 viewBox="0 0 72 72" style="enable-background:new 0 0 72 72;" xml:space="preserve">
<path d="M65.6,20H54c0-0.3,0-0.6-0.1-1C51.7,11,44.3,5.4,36,5.4S20.3,11,18.1,19C18,19.4,18,19.7,18,20H6.4C2.8,20,0,22.8,0,26.4
	v39.3C0,69.2,2.8,72,6.4,72h59.3c3.5,0,6.4-2.8,6.4-6.4V26.4C72,22.8,69.2,20,65.6,20z M36,9c5.8,0,10.8,3.3,13.3,8.1
	c0.7,1.3-0.2,2.9-1.7,2.9H24.4c-1.5,0-2.4-1.6-1.7-2.9C25.2,12.3,30.2,9,36,9z"/>
</svg>
