<?xml version="1.0" encoding="utf-8"?>
<!-- Generator: Adobe Illustrator 25.0.0, SVG Export Plug-In . SVG Version: 6.00 Build 0)  -->
<svg version="1.1" id="Layer_1" xmlns="http://www.w3.org/2000/svg" xmlns:xlink="http://www.w3.org/1999/xlink" x="0px" y="0px"
	 viewBox="0 0 500 500" style="enable-background:new 0 0 500 500;" xml:space="preserve">
<style type="text/css">
	.st0{fill:#FFFFFF;}
</style>
<g>
	<path class="st0" d="M406.39,217.79c1.37,2.79,2.73,5.44,3.99,8.14c5.24,11.27,9.1,22.98,10.91,35.3
		c3.46,23.41,0.04,45.61-12.01,66.22c-1.16,1.99-2.53,3.85-3.75,5.68c15.75,25.72,25.35,53.86,33.09,82.74
		c4.92,18.36,8.6,36.99,11.5,55.77c1.09,7.01,1.99,14.06,2.98,21.09c-0.1,0.05-0.2,0.1-0.3,0.15
		c-41.93-52.08-83.86-104.16-125.98-156.48c1.96,0.41,3.57,0.84,5.2,1.08c6.58,0.97,12.95-0.03,19.18-2.22
		c9.37-3.3,17.53-8.68,25.19-14.87c8.92-7.21,16.84-15.44,24.18-24.27c-0.24,0.21-0.48,0.42-0.71,0.64
		c-11.85,10.87-24.79,20.1-39.76,26.23c-8.07,3.3-16.42,5.33-25.22,5.13c-6.03-0.13-11.8-1.38-17.25-3.95
		c-0.63-0.3-1.25-0.78-1.68-1.32c-11.19-13.86-22.36-27.73-33.53-41.61c-6.9-8.57-13.8-17.14-20.7-25.72
		c-0.15-0.19-0.29-0.39-0.48-0.64c3.36,1.47,6.58,3.03,9.9,4.31c12.44,4.77,25.35,6.29,38.59,5.16
		c19.21-1.63,36.91-8.08,53.83-16.98c14.87-7.83,28.61-17.33,41.33-28.31C405.33,218.68,405.78,218.3,406.39,217.79z"/>
	<path class="st0" d="M214.11,394.35c9.34-3.92,18.26-8.49,26.81-13.81c9.12-5.67,17.68-12.07,25.21-19.76
		c8.71-8.9,15.6-18.95,19.12-31.05c2.23-7.67,2.89-15.45,1.55-23.37c-0.03-0.2-0.02-0.41,0.26-0.86c0.23,0.35,0.43,0.72,0.7,1.03
		c20.2,23.46,40.42,46.9,60.57,70.4c1.22,1.43,2,3.27,2.81,5.01c4.52,9.73,7.71,19.85,8.77,30.56c0.94,9.52,0.37,18.9-3.08,27.94
		c-0.06,0.15-0.09,0.3,0,0.52c7.12-5.06,11.44-11.96,13.11-20.48c1.68-8.56-0.49-16.45-4.62-23.97
		c28.81,32.96,57.61,65.91,86.64,99.12c-1.49-0.45-2.72-0.81-3.94-1.19c-25.37-8.08-50.21-17.52-74.2-29.1
		c-21.44-10.34-42.08-22.02-60.9-36.69c-3.78-2.94-7.35-6.14-11.08-9.28c-42.49,17.46-88.07,6.58-120.88-20.14
		c0.38-0.29,0.72-0.56,1.08-0.82c18.58-13.57,35.2-29.17,48.96-47.67c9.08-12.21,16.4-25.34,20.61-40.06
		c4.36-15.27,4.66-30.54,0.04-45.82c-0.04-0.12-0.03-0.25-0.06-0.54c0.26,0.22,0.45,0.33,0.58,0.49
		c5.27,6.19,10.69,12.28,15.73,18.65c1.81,2.29,2.86,5.23,4.01,7.98c3.02,7.26,4.67,14.85,4.79,22.72
		c0.18,11.87-3.2,22.79-9.16,32.96c-6.74,11.5-15.83,20.92-26.1,29.26c-8.2,6.66-17,12.42-26.3,17.41
		C214.78,393.97,214.45,394.16,214.11,394.35z"/>
	<path class="st0" d="M204.58,376.95c-7.98,7.49-16.34,14.42-25.38,20.81c-2.71-2.24-5.47-4.4-8.09-6.71
		c-16.38-14.44-29.39-31.46-39.23-50.97c-7.31-14.51-13.69-29.37-18.19-45c-4.02-14-6.49-28.24-7.17-42.81
		c-0.94-20.06,1.97-39.59,7.61-58.78c3.64-12.38,8.12-24.43,14.62-35.62c2.04-3.51,4.23-6.96,6.67-10.2
		c6.31-8.37,17-4.78,20.48,2.22c1.25,2.52,1.38,5.1,0.09,7.66c-3.75,7.45-7.5,14.9-11.27,22.33c-7.08,13.97-12.72,28.48-16.64,43.66
		c-4.26,16.49-4.53,33.08-1.28,49.76c5.19,26.64,15.69,51.01,31.43,73.1c5.36,7.52,11.41,14.46,18.43,20.48
		c7.29,6.26,15.88,9.25,25.41,9.72c0.77,0.04,1.54,0.09,2.3,0.13C204.41,376.74,204.44,376.8,204.58,376.95z"/>
	<path class="st0" d="M251.05,21.66c-0.22,17.24-0.44,34.49-0.66,51.86c-21.49-9.86-42.96-11.77-64.73-0.82
		c3.21-17.13,6.4-34.14,9.58-51.16c-0.05-0.03-0.11-0.07-0.16-0.1c-0.2,0.27-0.43,0.53-0.6,0.81
		c-12.34,20.07-21.86,41.32-27.08,64.39c-2.02,8.92-3.14,17.96-3.11,27.11c0.03,8.74,1.17,17.32,3.84,25.67
		c0.04,0.11,0.05,0.24,0.14,0.7c-1.53-1.89-2.86-3.53-4.18-5.17c-3.49-4.34-7-8.66-10.44-13.03c-0.44-0.55-0.75-1.36-0.77-2.07
		c-0.47-15.06,2.96-29.39,8.34-43.31c5.98-15.47,14.25-29.76,23.15-43.69c3.41-5.34,7-10.55,10.52-15.82
		c0.26-0.39,0.55-0.75,0.93-1.27c0.17,0.36,0.3,0.6,0.39,0.84c4.65,12.46,9.3,24.91,13.91,37.38c0.32,0.87,0.69,1.14,1.64,1.11
		c4.53-0.16,9.07-0.27,13.61-0.3c0.99-0.01,1.51-0.33,2.02-1.15c7.73-12.73,15.49-25.43,23.25-38.15c0.24-0.4,0.5-0.78,0.86-1.33
		c1.07,3.05,2.24,5.91,3.07,8.86c1.4,5.02,2.49,10.13,3.86,15.15c4.7,17.12,8.6,34.43,12.3,51.79c0.43,2.01,0.86,4.01,1.29,6.01
		c0.02,0.07,0.11,0.12,0.25,0.27c3.29-1.66,6.6-3.32,9.92-4.99c2.52-1.27,5.03-2.56,7.55-3.83c0.69-0.35,1.44-0.62,1.87,0.27
		c0.42,0.87-0.2,1.31-0.91,1.67c-5.77,2.91-11.53,5.82-17.29,8.74c-0.26,0.13-0.51,0.28-0.84,0.47c0.6,2.27,1.18,4.49,1.81,6.86
		c0.99-0.32,1.91-0.6,2.82-0.91c7.21-2.43,14.42-4.87,21.62-7.3c0.32-0.11,0.7-0.35,0.97-0.26c0.47,0.14,1.05,0.41,1.24,0.79
		c0.12,0.24-0.3,0.99-0.65,1.16c-0.96,0.46-2,0.74-3.01,1.08c-7.13,2.4-14.26,4.8-21.39,7.2c-0.28,0.09-0.55,0.21-0.98,0.38
		c0.62,1.97,1.19,3.92,1.89,5.84c0.1,0.27,0.83,0.48,1.23,0.43c3.66-0.42,7.3-0.91,10.95-1.37c2.84-0.36,5.68-0.78,8.53-1.05
		c0.47-0.05,1.29,0.38,1.44,0.79c0.32,0.83-0.34,1.19-1.13,1.29c-5.09,0.64-10.19,1.29-15.28,1.94c-1.57,0.2-3.14,0.4-4.88,0.63
		c0.34,0.96,0.61,1.88,1,2.76c1.18,2.65,2.37,5.3,3.63,7.92c0.61,1.27,1.66,2.07,2.99,2.65c20.66,9,40.67,19.23,59.56,31.56
		c13.98,9.13,27.15,19.29,38.93,31.17c7.29,7.34,13.9,15.24,19.55,23.93c0.18,0.28,0.36,0.57,0.64,1.02
		c-3.7,3.01-7.36,5.99-11.15,9.07c-1.02-2-1.92-3.83-2.88-5.63c-6.51-12.31-14.73-23.37-24.38-33.39
		c-15.01-15.59-32.47-27.93-51.25-38.5c-10.03-5.65-20.36-10.71-30.93-15.27c-1.81-0.78-3.19-1.94-4.25-3.56
		c-2.92-4.45-4.67-9.4-6.35-14.39c-3.19-9.46-5.31-19.19-7.42-28.93c-3.47-16.01-7.13-31.97-10.68-47.96
		c-1.24-5.59-2.39-11.19-3.58-16.79C251.16,21.68,251.1,21.67,251.05,21.66z"/>
	<path class="st0" d="M385.43,414.17C272.87,279.26,158.72,145.68,44.3,11.82c0.91-1.05,1.9-2.58,3.25-3.68
		c2.31-1.88,4.83-3.5,7.28-5.19c0.54-0.38,1-0.27,1.49,0.35C69.18,19.65,82,36.03,94.98,52.3c20.13,25.24,40.36,50.4,60.57,75.58
		c17.45,21.74,35,43.39,52.38,65.19c5.66,7.09,10.74,14.63,16.4,21.72c17.2,21.55,34.51,43.02,51.86,64.45
		c22.07,27.25,44.21,54.45,66.34,81.65c14.1,17.34,28.23,34.66,42.35,51.98c0.29,0.35,0.55,0.71,0.83,1.07
		C385.62,414.02,385.52,414.1,385.43,414.17z"/>
	<path class="st0" d="M193,96.52c3.52,0.03,6.4,2.95,6.33,6.41c-0.08,3.47-2.94,6.28-6.37,6.26c-3.5-0.01-6.37-2.94-6.31-6.43
		C186.71,99.27,189.54,96.5,193,96.52z M188.79,102.72c-0.06,2.33,1.83,4.3,4.14,4.33c2.26,0.02,4.18-1.85,4.23-4.13
		c0.05-2.25-1.83-4.2-4.09-4.25C190.79,98.62,188.86,100.45,188.79,102.72z"/>
	<path class="st0" d="M243.36,102.96c-0.03,3.46-2.9,6.28-6.33,6.24c-3.52-0.05-6.3-2.93-6.26-6.46c0.04-3.46,2.9-6.25,6.36-6.21
		C240.68,96.56,243.4,99.36,243.36,102.96z M241.26,102.89c0.02-2.29-1.83-4.18-4.11-4.22c-2.35-0.04-4.25,1.85-4.24,4.21
		c0.01,2.3,1.87,4.16,4.16,4.17C239.34,107.05,241.24,105.16,241.26,102.89z"/>
	<path class="st0" d="M215.51,116.57c0.12,3.43,0.26,7.01,0.37,10.6c0.03,0.88,0.47,2.13-0.98,2.19c-1.35,0.06-1.08-1.17-1.12-2.02
		c-0.15-3.42-0.28-6.83-0.42-10.25c-0.01-0.25-0.06-0.5-0.09-0.69c-1.07-0.35-2.11-0.61-3.07-1.04c-0.52-0.23-0.99-0.68-1.33-1.15
		c-0.21-0.29-0.25-0.84-0.12-1.18c0.08-0.19,0.65-0.24,1.01-0.26c0.33-0.02,0.68,0.06,1.01,0.16c2.62,0.78,5.21,0.71,7.84,0
		c0.65-0.18,1.72-0.74,1.97,0.3c0.13,0.52-0.56,1.55-1.14,1.87C218.32,115.75,217,116.05,215.51,116.57z"/>
</g>
</svg>
