<?xml version="1.0" encoding="utf-8"?>
<!-- Generator: Adobe Illustrator 25.1.0, SVG Export Plug-In . SVG Version: 6.00 Build 0)  -->
<svg version="1.1" id="Layer_1" xmlns="http://www.w3.org/2000/svg" xmlns:xlink="http://www.w3.org/1999/xlink" x="0px" y="0px"
	 viewBox="0 0 72 72" style="enable-background:new 0 0 72 72;" xml:space="preserve">
<style type="text/css">
	.st0{fill:#161616;}
</style>
<g>
	<path class="st0" d="M60.3,33.2c-0.2,0-0.4,0-0.5,0c-3.2,0-6.4,0-9.6,0c-0.4,0-0.5-0.1-0.5-0.5c0-2.4,0-4.8,0-7.2
		c0-0.5,0.1-1.1,0.3-1.6c0.4-1.5,1.6-2.3,3.1-2.5c0.5-0.1,1.1-0.1,1.6-0.2c1.8,0,3.7,0,5.5,0c0.4,0,0.5-0.1,0.5-0.5c0-3,0-5.9,0-8.9
		c0-0.3-0.1-0.5-0.4-0.5c-1.4-0.1-2.9-0.2-4.3-0.3c-1.5-0.1-3-0.1-4.5-0.1c-3.1,0.1-5.9,0.9-8.3,2.9c-2.2,1.8-3.5,4.2-4.2,7
		c-0.3,1.3-0.5,2.6-0.5,4c0,2.6,0,5.2,0,7.8c0,0.4-0.1,0.5-0.5,0.5c-2.8,0-5.6,0-8.4,0c-0.3,0-0.5,0.1-0.5,0.4c0,3.3,0,6.7,0,10
		c0,0.4,0.1,0.5,0.5,0.5c2.8,0,5.6,0,8.4,0c0.4,0,0.5,0.1,0.5,0.5c0,8.9,0,17.7,0,26.6c0,0.3-0.1,0.5-0.5,0.5c-11.2,0-22.5,0-33.7,0
		c-2,0-3.7-1.7-3.8-3.7c0-0.2,0-0.3,0-0.5c0-20.9,0-41.9,0-62.8c0-1,0.2-1.9,0.8-2.7C1.9,1,2.9,0.4,4.1,0.4c4.8,0,9.5,0,14.3,0
		c16.4,0,32.7,0,49.1,0c1,0,2,0.2,2.8,0.9C71.1,2,71.6,3,71.6,4.2c0,21.2,0,42.4,0,63.6c0,2-1.7,3.8-3.8,3.8c-5.9,0-11.9,0-17.8,0
		c-0.3,0-0.4-0.1-0.4-0.4c0-8.9,0-17.8,0-26.7c0-0.4,0.1-0.4,0.5-0.4c2.8,0,5.6,0,8.4,0c0.3,0,0.5-0.1,0.5-0.4
		c0.2-1.4,0.4-2.9,0.5-4.3c0.2-1.4,0.4-2.8,0.6-4.3C60.1,34.5,60.2,33.9,60.3,33.2z"/>
</g>
</svg>
