<?xml version="1.0" encoding="utf-8"?>
<!-- Generator: Adobe Illustrator 25.1.0, SVG Export Plug-In . SVG Version: 6.00 Build 0)  -->
<svg version="1.1" id="Layer_1" xmlns="http://www.w3.org/2000/svg" xmlns:xlink="http://www.w3.org/1999/xlink" x="0px" y="0px"
	 viewBox="0 0 72 72" style="enable-background:new 0 0 72 72;" xml:space="preserve">
<path d="M41.4,64.8c-2.5,1.9-4.4,2.7-4.6,2.8c-0.3,0.1-0.5,0.2-0.8,0.2s-0.5-0.1-0.8-0.2c-0.2-0.1-2.1-0.9-4.6-2.8
	c-9,0.3-15.6,1.4-15.6,2.7c0,1.6,9.4,2.8,21,2.8s21-1.3,21-2.8C57,66.2,50.4,65.1,41.4,64.8z"/>
<path d="M55.4,19L55.4,19C54.8,8.7,46.4,0.6,36,0.6S17.2,8.7,16.6,19h0c0,0.2,0,0.3,0,0.5c0,0.2,0,0.3,0,0.5c0,0.8,0.1,7.5,0.2,8.3
	C18.9,58.7,36,65.6,36,65.6s17.1-6.8,19.2-37.3c0.1-0.8,0.2-7.4,0.2-8.3c0-0.2,0-0.3,0-0.5C55.4,19.3,55.4,19.2,55.4,19z M36,27.7
	c-4.3,0-7.8-3.5-7.8-7.8s3.5-7.8,7.8-7.8s7.8,3.5,7.8,7.8S40.3,27.7,36,27.7z"/>
</svg>
