<?xml version="1.0" encoding="utf-8"?>
<!-- Generator: Adobe Illustrator 25.1.0, SVG Export Plug-In . SVG Version: 6.00 Build 0)  -->
<svg version="1.1" id="Layer_1" xmlns="http://www.w3.org/2000/svg" xmlns:xlink="http://www.w3.org/1999/xlink" x="0px" y="0px"
	 viewBox="0 0 72 72" style="enable-background:new 0 0 72 72;" xml:space="preserve">
<path d="M41.4,64.8c-2.5,1.9-4.4,2.7-4.6,2.8c-0.3,0.1-0.5,0.2-0.8,0.2s-0.5-0.1-0.8-0.2c-0.2-0.1-2.1-0.9-4.6-2.8
	c-9,0.3-15.6,1.4-15.6,2.7c0,1.6,9.4,2.8,21,2.8s21-1.3,21-2.8C57,66.2,50.4,65.1,41.4,64.8z"/>
<path d="M36,0.6L36,0.6L36,0.6c-10.4,0-19.3,8-19.4,18.4c0,0.2,0.1,1.5,0.2,2.3C19.9,41.9,36,65.6,36,65.6l0,0l0,0
	c0,0,16.1-23.7,19.2-44.3c0.1-0.8,0.2-2.1,0.2-2.3C55.3,8.6,46.4,0.6,36,0.6z M36.1,27.7L36.1,27.7C36,27.7,36,27.7,36.1,27.7
	C36,27.7,36,27.7,36.1,27.7L36.1,27.7c-4.4,0-7.9-3.5-7.9-7.8s3.5-7.8,7.8-7.8l0,0l0,0l0,0l0,0c4.3,0,7.8,3.5,7.8,7.8
	S40.4,27.7,36.1,27.7z"/>
</svg>
