<?xml version="1.0" encoding="utf-8"?>
<!-- Generator: Adobe Illustrator 25.0.0, SVG Export Plug-In . SVG Version: 6.00 Build 0)  -->
<svg version="1.1" id="Layer_1" xmlns="http://www.w3.org/2000/svg" xmlns:xlink="http://www.w3.org/1999/xlink" x="0px" y="0px"
	 viewBox="0 0 72 72" style="enable-background:new 0 0 72 72;" xml:space="preserve">
<style type="text/css">
	.st0{fill:#E6E7E8;}
</style>
<g id="instagram_2_">
	<g>
		<g>
			<g>
				<path class="st0" d="M63.45,0.63H8.99c-4.7,0-8.51,3.82-8.51,8.51v54.45c0,4.7,3.81,8.51,8.51,8.51h54.46
					c4.69,0,8.49-3.8,8.49-8.51V9.14C71.93,4.45,68.12,0.63,63.45,0.63z M36.16,22.83c7.61,0,13.76,6.16,13.76,13.76
					c0,7.59-6.16,13.76-13.76,13.76S22.4,44.19,22.4,36.59C22.4,28.99,28.56,22.83,36.16,22.83z M63.64,61.37
					c0,1.48-1.22,2.71-2.73,2.71H11.38c-1.53,0-2.75-1.23-2.75-2.74V31.07h6.24c-0.44,1.75-0.72,3.61-0.72,5.51
					c0,12.16,9.83,22,21.99,22s22-9.85,22-22c0-1.91-0.27-3.76-0.72-5.51h6.21v30.29h0V61.37z M60.89,22.78h-8.2
					c-1.52,0-2.76-1.23-2.76-2.76v-8.2c0-1.52,1.23-2.76,2.76-2.76h8.2c1.52,0,2.76,1.23,2.76,2.76v8.2
					C63.65,21.55,62.41,22.78,60.89,22.78z"/>
			</g>
		</g>
	</g>
</g>
</svg>
