<?xml version="1.0" encoding="utf-8"?>
<!-- Generator: Adobe Illustrator 25.1.0, SVG Export Plug-In . SVG Version: 6.00 Build 0)  -->
<svg version="1.1" id="Layer_1" xmlns="http://www.w3.org/2000/svg" xmlns:xlink="http://www.w3.org/1999/xlink" x="0px" y="0px"
	 viewBox="0 0 72 72" style="enable-background:new 0 0 72 72;" xml:space="preserve">
<style type="text/css">
	.st0{fill:#161616;}
</style>
<g id="instagram_2_">
	<g>
		<g>
			<g>
				<path class="st0" d="M63.6,0.4H8.8C4.1,0.4,0.3,4.3,0.3,9v54.8c0,4.7,3.8,8.6,8.6,8.6h54.8c4.7,0,8.5-3.8,8.5-8.6V9
					C72.1,4.3,68.3,0.4,63.6,0.4z M36.2,22.7c7.7,0,13.8,6.2,13.8,13.8s-6.2,13.8-13.8,13.8s-13.8-6.2-13.8-13.8
					C22.3,28.9,28.5,22.7,36.2,22.7z M63.8,61.5c0,1.5-1.2,2.7-2.7,2.7H11.2c-1.5,0-2.8-1.2-2.8-2.8V31h6.3
					c-0.4,1.8-0.7,3.6-0.7,5.5c0,12.2,9.9,22.1,22.1,22.1s22.1-9.9,22.1-22.1c0-1.9-0.3-3.8-0.7-5.5h6.2L63.8,61.5L63.8,61.5
					L63.8,61.5z M61,22.7h-8.3c-1.5,0-2.8-1.2-2.8-2.8v-8.3c0-1.5,1.2-2.8,2.8-2.8H61c1.5,0,2.8,1.2,2.8,2.8v8.3
					C63.8,21.5,62.6,22.7,61,22.7z"/>
			</g>
		</g>
	</g>
</g>
</svg>
