<?xml version="1.0" encoding="utf-8"?>
<!-- Generator: Adobe Illustrator 25.0.0, SVG Export Plug-In . SVG Version: 6.00 Build 0)  -->
<svg version="1.1" id="Layer_1" xmlns="http://www.w3.org/2000/svg" xmlns:xlink="http://www.w3.org/1999/xlink" x="0px" y="0px"
	 viewBox="0 0 72 72" style="enable-background:new 0 0 72 72;" xml:space="preserve">
<g id="instagram_2_">
	<g>
		<g>
			<g>
				<path d="M58.59,7H13.84c-3.86,0-6.99,3.14-6.99,6.99v44.74c0,3.86,3.13,6.99,6.99,6.99h44.75c3.85,0,6.98-3.12,6.98-6.99V13.99
					C65.56,10.14,62.43,7,58.59,7z M36.17,25.24c6.25,0,11.31,5.06,11.31,11.31c0,6.24-5.06,11.31-11.31,11.31
					s-11.31-5.07-11.31-11.31C24.86,30.3,29.92,25.24,36.17,25.24z M58.75,56.91c0,1.22-1,2.23-2.24,2.23H15.81
					c-1.26,0-2.26-1.01-2.26-2.25V32.01h5.13c-0.36,1.44-0.59,2.97-0.59,4.53c0,9.99,8.08,18.08,18.07,18.08s18.08-8.09,18.08-18.08
					c0-1.57-0.22-3.09-0.59-4.53h5.1v24.89H58.75z M56.49,25.2h-6.74c-1.25,0-2.27-1.01-2.27-2.27v-6.74c0-1.25,1.01-2.27,2.27-2.27
					h6.74c1.25,0,2.27,1.01,2.27,2.27v6.74C58.76,24.19,57.74,25.2,56.49,25.2z"/>
			</g>
		</g>
	</g>
</g>
</svg>
