<?xml version="1.0" encoding="utf-8"?>
<!-- Generator: Adobe Illustrator 25.1.0, SVG Export Plug-In . SVG Version: 6.00 Build 0)  -->
<svg version="1.1" id="Layer_1" xmlns="http://www.w3.org/2000/svg" xmlns:xlink="http://www.w3.org/1999/xlink" x="0px" y="0px"
	 viewBox="0 0 72 72" style="enable-background:new 0 0 72 72;" xml:space="preserve">
<path d="M66.6,0.6c-20.4,0-40.7,0-61.1,0c-2.4,0-4.4,1.8-4.8,4.1c-0.1,0.5-0.1,1-0.1,1.5c0,19.9,0,39.9,0,59.8
	c0,2.2,1.4,4.4,3.6,5.1c0.1,0,0.3,0.2,0.4,0.2h62.7c0.6-0.3,1.3-0.6,1.9-1c1.4-0.9,2.1-2.2,2.1-3.9c0-20.3,0-40.7,0-61
	C71.4,2.9,69,0.6,66.6,0.6z M21.6,60.9c-3.5,0-6.9,0-10.5,0c0-11.2,0-22.4,0-33.7c3.5,0,7,0,10.5,0C21.6,38.4,21.6,49.6,21.6,60.9z
	 M16.4,22.5c-3.2,0.1-6.2-2.5-6.2-6.1c0-3.3,2.7-6,6-6.1c3.3-0.1,6.2,2.6,6.2,5.9C22.5,19.8,19.8,22.5,16.4,22.5z M61,60.9
	c-3.5,0-7,0-10.5,0c0-0.3,0-0.5,0-0.7c0-5.8,0-11.6,0-17.4c0-1.3-0.2-2.6-0.6-3.8c-0.6-2.2-2.3-3.4-4.6-3.4c-1.4,0-2.7,0.2-3.9,1
	c-1.4,1-2,2.5-2.3,4.1c-0.2,1-0.2,2.1-0.2,3.2c0,5.5,0,10.9,0,16.4c0,0.2,0,0.5,0,0.8c-3.5,0-7,0-10.5,0c0-11.2,0-22.5,0-33.7
	c3.3,0,6.6,0,10,0c0,1.5,0,3,0,4.4c0,0,0.1,0,0.1,0c0.1-0.1,0.2-0.3,0.3-0.4c1.6-2.6,4-4.1,7-4.7c2.8-0.6,5.6-0.4,8.3,0.6
	c3.3,1.2,5.2,3.6,6.1,6.9c0.5,1.8,0.8,3.7,0.8,5.6c0,6.9,0.1,13.8,0.1,20.7C61,60.6,61,60.7,61,60.9z"/>
</svg>
