<?xml version="1.0" encoding="utf-8"?>
<!-- Generator: Adobe Illustrator 25.0.0, SVG Export Plug-In . SVG Version: 6.00 Build 0)  -->
<svg version="1.1" id="Layer_1" xmlns="http://www.w3.org/2000/svg" xmlns:xlink="http://www.w3.org/1999/xlink" x="0px" y="0px"
	 viewBox="0 0 72 72" style="enable-background:new 0 0 72 72;" xml:space="preserve">
<style type="text/css">
	.st0{fill:#FFFFFF;}
</style>
<path class="st0" d="M64.7,24.33H7.3c-2.93,0-5.3,2.37-5.3,5.3v34.09c0,2.93,2.37,5.3,5.3,5.3h57.4c2.93,0,5.3-2.37,5.3-5.3V29.63
	C70,26.7,67.63,24.33,64.7,24.33z M47.56,44.55l18.28-14.77c0.18,0.36,0.28,0.76,0.28,1.19V61.5L47.56,44.55z M5.89,62.38
	c0-0.01,0-0.01,0-0.02V30.98c0-0.2,0.02-0.4,0.06-0.58L24.5,45.39L5.89,62.38z M8.9,28.22h53.22L37.84,47.37
	c-2.11,1.22-2.54,1.22-4.66,0L8.9,28.22z M8.99,65.13L27.74,48l4.08,3.29c0.09,0.07,0.18,0.13,0.28,0.19c2.1,1.2,4.74,1.2,6.84,0
	c0.1-0.06,0.19-0.12,0.28-0.19l5.11-4.13l19.6,17.9c-0.18,0.04-0.37,0.06-0.57,0.06H8.99z"/>
<path class="st0" d="M4.77,25.22L32,3.21c0.09-0.07,0.18-0.13,0.28-0.19c2.1-1.2,4.74-1.2,6.84,0c0.1,0.06,0.19,0.12,0.28,0.19
	l27.24,22.01c1.28,1.04,0.5,3.02-1.19,3.02h0c-0.43,0-0.85-0.14-1.18-0.4L38.03,7.14c-2.11-1.22-2.54-1.22-4.66,0L7.14,27.84
	c-0.33,0.26-0.75,0.4-1.18,0.4h0C4.26,28.24,3.48,26.26,4.77,25.22z"/>
</svg>
