<?xml version="1.0" encoding="utf-8"?>
<!-- Generator: Adobe Illustrator 25.1.0, SVG Export Plug-In . SVG Version: 6.00 Build 0)  -->
<svg version="1.1" id="Layer_1" xmlns="http://www.w3.org/2000/svg" xmlns:xlink="http://www.w3.org/1999/xlink" x="0px" y="0px"
	 viewBox="0 0 1109 531" style="enable-background:new 0 0 1109 531;" xml:space="preserve">
<style type="text/css">
	.st0{fill:#FFFFFF;}
</style>
<g>
	<path d="M99.6,420.7L99.6,420.7c-3.8-3.8-9.9-3.8-13.7,0l-51.5,52.1c-0.4,0.4-0.7,1-0.9,1.6l-3.1,14c-0.1,0.6,0.4,1.2,1,1.1
		l14.8-2.1c0.7-0.1,1.4-0.4,1.9-0.9l51.4-52C103.3,430.8,103.3,424.6,99.6,420.7z"/>
	<g>
		<path class="st0" d="M17.2,165.7c0.4,0.1,0.7,0.3,1,0.4c4.7,1.7,9.4,3.6,14.1,5.3c0.6,0.3,0.9,0.6,0.9,1.1c0,1.6,0,3.1,0,4.7
			c0,0.3-0.1,0.7-0.4,1c-0.9,0.9-1,1.9-0.3,3c0.1,0.1,0.3,0.4,0.3,0.6c0.1,1.6,0.4,3.3,0.3,4.9c-0.1,2.3-0.4,4.6-0.6,6.9
			c-0.4,4.3-0.9,8.6-1.3,12.9c-0.1,0.9,0.3,1.4,1,1.7c1.4,0.6,2.9,0.6,4.3-0.1c0.6-0.3,0.9-0.7,0.9-1.4c-0.3-3.3-0.6-6.4-0.9-9.7
			c-0.3-3.9-1.1-7.7-0.7-11.6c0.1-0.9,0-1.9,0-2.9c0-0.4,0.1-0.9,0.4-1.3c0.6-1,0.4-2.1-0.3-2.7c-0.4-0.4-0.6-0.9-0.6-1.4
			c0-1.3,0-2.6,0-3.9c0-0.3,0-0.4,0-0.7c0.3,0.1,0.6,0.1,0.9,0.3c9.9,3.7,19.7,7.3,29.6,11c0.6,0.3,1.1,0.3,1.7,0
			c15.9-5.9,31.7-11.9,47.4-17.7c0.3-0.1,0.4-0.1,0.7-0.3c-0.4-0.1-0.6-0.3-0.9-0.3c-15.9-5.9-31.7-11.9-47.6-17.7
			c-0.4-0.1-1-0.1-1.4,0c-13.3,4.9-26.4,9.9-39.6,14.7C23.2,163.6,20.4,164.6,17.2,165.7z M41.3,177c0,0.4,0,0.7,0,0.9
			c0,2.9,0,5.6,0,8.4c0,2.6,0.9,4.9,2.6,6.9c2,2.4,4.7,4.1,7.6,5.4c7.9,3.3,16,3.7,24.3,1.9c4-0.9,7.9-2.6,11-5.3
			c3-2.6,4.7-5.6,4.6-9.6c-0.1-2.1,0-4.4,0-6.6c0-0.6,0-1.3,0-2c-0.3,0.1-0.6,0.1-0.9,0.3c-7.9,2.9-15.6,5.9-23.4,8.7
			c-0.4,0.1-1,0.1-1.4,0c-4.9-1.7-9.7-3.6-14.6-5.4C47.9,179.4,44.8,178.1,41.3,177z"/>
		<path d="M17.2,165.7c3.1-1.1,6-2.3,8.9-3.3c13.1-4.9,26.3-9.9,39.6-14.7c0.4-0.1,1-0.1,1.4,0c15.9,5.9,31.7,11.7,47.6,17.7
			c0.3,0.1,0.4,0.1,0.9,0.3c-0.3,0.1-0.6,0.3-0.7,0.3c-15.9,5.9-31.7,11.7-47.4,17.7c-0.6,0.3-1.1,0.1-1.7,0
			c-9.9-3.7-19.7-7.3-29.6-11c-0.3-0.1-0.6-0.1-0.9-0.3c0,0.3,0,0.6,0,0.7c0,1.3,0,2.6,0,3.9c0,0.6,0.1,1,0.6,1.4
			c0.9,0.7,0.9,1.9,0.3,2.7c-0.3,0.4-0.4,0.9-0.4,1.3c0,0.9,0,1.9,0,2.9c-0.4,3.9,0.4,7.7,0.7,11.6c0.3,3.3,0.6,6.4,0.9,9.7
			c0,0.7-0.1,1.3-0.9,1.4c-1.4,0.6-2.9,0.7-4.3,0.1c-0.7-0.3-1.1-0.9-1-1.7c0.4-4.3,0.9-8.6,1.3-12.9c0.3-2.3,0.6-4.6,0.6-6.9
			c0-1.6-0.1-3.3-0.3-4.9c0-0.1-0.1-0.4-0.3-0.6c-0.7-1.1-0.6-2.1,0.3-3c0.3-0.3,0.4-0.6,0.4-1c0-1.6,0-3.1,0-4.7
			c0-0.7-0.1-1-0.9-1.1c-4.7-1.7-9.4-3.6-14.1-5.3C17.9,166,17.6,165.9,17.2,165.7z"/>
		<path d="M41.3,177c3.3,1.3,6.6,2.4,9.7,3.6c4.9,1.9,9.7,3.6,14.6,5.4c0.4,0.1,1,0.1,1.4,0c7.9-2.9,15.6-5.9,23.4-8.7
			c0.3-0.1,0.4-0.1,0.9-0.3c0,0.7,0,1.3,0,2c0,2.1-0.1,15.9,0,18c0.1,4-1.6,7.1-4.6,9.6c-3.3,2.7-7,4.3-11,5.3
			c-8.3,1.9-16.4,1.6-24.3-1.9c-2.9-1.3-5.6-3-7.6-5.4c-1.7-2-2.6-4.3-2.6-6.9c0-2.9,0-17,0-19.8C41.3,177.6,41.3,177.4,41.3,177z"
			/>
	</g>
	<g>
		<path d="M73.7,368.9c-3.4,2.6-5.9,3.6-6.2,3.8c-0.4,0.1-0.7,0.3-1.1,0.3c-0.4,0-0.7-0.1-1.1-0.3c-0.3-0.1-2.8-1.2-6.2-3.8
			c-12.1,0.4-20.9,1.9-20.9,3.6c0,2.1,12.6,3.8,28.2,3.8s28.2-1.7,28.2-3.8C94.6,370.8,85.7,369.3,73.7,368.9z"/>
		<path d="M66.4,282.7L66.4,282.7L66.4,282.7c-14,0-25.9,10.7-26,24.7c0,0.3,0.1,2,0.3,3.1c4.2,27.7,25.8,59.5,25.8,59.5l0,0l0,0
			c0,0,21.6-31.8,25.8-59.5c0.1-1.1,0.3-2.8,0.3-3.1C92.3,293.4,80.4,282.7,66.4,282.7z M66.5,319.1L66.5,319.1
			C66.4,319.1,66.4,319.1,66.5,319.1C66.4,319.1,66.4,319.1,66.5,319.1L66.5,319.1c-5.9,0-10.6-4.7-10.6-10.5
			c0-5.8,4.7-10.5,10.5-10.5l0,0l0,0l0,0l0,0c5.8,0,10.5,4.7,10.5,10.5C76.9,314.4,72.3,319.1,66.5,319.1z"/>
	</g>
	<path d="M96,27.1H84.4c0-0.3,0-0.6-0.1-1c-2.2-8-9.6-13.6-17.9-13.6s-15.7,5.6-17.9,13.6c-0.1,0.4-0.1,0.7-0.1,1H36.8
		c-3.6,0-6.4,2.8-6.4,6.4v39.3c0,3.5,2.8,6.3,6.4,6.3h59.3c3.5,0,6.4-2.8,6.4-6.4V33.5C102.4,29.9,99.6,27.1,96,27.1z M66.4,16.1
		c5.8,0,10.8,3.3,13.3,8.1c0.7,1.3-0.2,2.9-1.7,2.9H54.8c-1.5,0-2.4-1.6-1.7-2.9C55.6,19.4,60.6,16.1,66.4,16.1z"/>
	<g>
		<g>
			<path d="M157.4,33.4V67h-2.6V33.4H157.4z"/>
			<path d="M166.1,49c0-2.1,0-4.1,0-6h2.4c0.1,0.8,0.1,3.9,0.1,4.6c1.1-2.4,3-5.1,8-5.1c4.3,0,8.1,2.4,8.1,9V67h-2.4V51.8
				c0-4.3-1.8-7.1-6-7.1c-5.7,0-7.7,4.8-7.7,10V67h-2.4V49z"/>
			<path d="M210.9,31.6v28.5c0,2.3,0,4.5,0,6.9h-2.3c-0.1-0.6-0.1-2.8-0.1-4c-1.2,2.9-3.9,4.6-8.1,4.6c-6.2,0-10-5.1-10-12.3
				c0-7.4,4.1-12.9,10.6-12.9c4.8,0,6.7,2.1,7.4,3.6V31.6H210.9z M193,55.2c0,6.6,3.4,10.1,7.5,10.1c6.3,0,8.1-4.4,8.1-10.9
				c0-6.2-1.5-9.7-7.6-9.7C196.2,44.7,193,48.4,193,55.2z"/>
			<path d="M236.7,60c0,2.4,0,6.1,0,7h-2.3c-0.1-0.6-0.1-2.2-0.1-4.2c-1,2.8-3.5,4.8-7.7,4.8c-3.5,0-7.9-1.3-7.9-8.7V43h2.4v15.3
				c0,3.5,1.1,6.9,5.9,6.9c5.4,0,7.4-3,7.4-9.9V43h2.4V60z"/>
			<path d="M244.6,60.4c0.8,3.1,3,5,6.8,5c4.3,0,6-2,6-4.7c0-2.7-1.2-4.1-6.5-5.4c-6.2-1.5-7.7-3.4-7.7-6.5c0-3.3,2.5-6.4,7.9-6.4
				s8,3.3,8.4,6.7h-2.4c-0.4-2-2-4.5-6.1-4.5c-4.2,0-5.4,2.1-5.4,4c0,2.2,1.2,3.3,5.9,4.5c6.8,1.6,8.4,3.8,8.4,7.4
				c0,4.4-3.6,7.1-8.6,7.1c-5.5,0-8.5-2.9-9.2-7.2H244.6z"/>
			<path d="M262.3,43h4.5v-7.5h2.4V43h5.7v2.3h-5.7v15.6c0,2.7,0.6,4.2,2.9,4.2c0.7,0,1.7,0,2.5-0.3v2.1c-0.8,0.3-2,0.4-3,0.4
				c-3.1,0-4.8-1.5-4.8-5.4V45.2h-4.5V43z"/>
			<path d="M279.8,49.5c0-4,0-5.8,0-6.5h2.4c0,0.8,0.1,2.3,0.1,5.4c1.4-3.6,4.5-5.8,8.4-6V45c-5,0.3-8.4,3.8-8.4,9.5V67h-2.4V49.5z"
				/>
			<path d="M295.3,31.6h2.4v4.7h-2.4V31.6z M295.3,43h2.4v24h-2.4V43z"/>
			<path d="M322.1,62.4c0,2.1,0.2,3.8,0.3,4.6h-2.3c-0.2-0.6-0.3-1.6-0.4-3.7c-0.8,1.8-2.9,4.3-7.9,4.3c-5.6,0-8-3.6-8-7.2
				c0-5.3,4.1-7.7,11.3-7.7c2,0,3.6,0,4.6,0v-2.4c0-2.4-0.7-5.6-6.2-5.6c-4.8,0-5.6,2.5-6.1,4.5H305c0.3-2.6,1.9-6.7,8.5-6.7
				c5.5,0,8.5,2.3,8.5,7.6V62.4z M319.7,54.7c-0.9,0-3.1,0-4.7,0c-5.3,0-8.6,1.4-8.6,5.5c0,3,2.2,5.1,5.5,5.1c6.9,0,7.8-4.6,7.8-9.7
				V54.7z"/>
			<path d="M330,67V31.6h2.4V67H330z"/>
			<path d="M353.5,33.4h11.1c9.2,0,15.6,6.4,15.6,16.5c0,10-6.2,17.1-15.6,17.1h-11.1V33.4z M356.1,64.6h8.1
				c8.9,0,13.2-6.2,13.2-14.5c0-7.4-3.9-14.3-13.2-14.3h-8.1V64.6z"/>
			<path d="M387.4,55.3c0,6.2,3.2,10,7.8,10c4.5,0,6-2.5,6.9-4.5h2.4c-1,3.2-3.6,6.8-9.5,6.8c-7.3,0-10.1-6.3-10.1-12.4
				c0-6.9,3.4-12.8,10.4-12.8c7.4,0,9.7,6.4,9.7,10.9c0,0.7,0,1.3,0,2H387.4z M402.6,53.1c0-4.8-2.6-8.5-7.3-8.5
				c-4.9,0-7.2,3.5-7.7,8.5H402.6z"/>
			<path d="M411,60.4c0.8,3.1,3,5,6.8,5c4.3,0,6-2,6-4.7c0-2.7-1.2-4.1-6.5-5.4c-6.2-1.5-7.7-3.4-7.7-6.5c0-3.3,2.5-6.4,7.9-6.4
				c5.4,0,8,3.3,8.4,6.7h-2.4c-0.4-2-2-4.5-6.1-4.5c-4.2,0-5.4,2.1-5.4,4c0,2.2,1.2,3.3,5.9,4.5c6.8,1.6,8.4,3.8,8.4,7.4
				c0,4.4-3.6,7.1-8.6,7.1c-5.5,0-8.5-2.9-9.2-7.2H411z"/>
			<path d="M432.3,31.6h2.4v4.7h-2.4V31.6z M432.3,43h2.4v24h-2.4V43z"/>
			<path d="M460.9,65.3c0,7.7-3.4,11.7-10.4,11.7c-6.2,0-8.8-3.5-9.4-7.2h2.4c0.9,3.3,3.6,4.9,7.1,4.9c6.2,0,8-4,8-10.1v-2.5
				c-1.3,3.1-3.6,4.8-8,4.8c-5.6,0-9.9-4.6-9.9-12c0-8.1,4.6-12.6,10.3-12.6c4.9,0,7,2.3,7.7,4.2c0-1.4,0.1-3.1,0.1-3.6h2.3
				c0,0.9-0.1,4.7-0.1,7V65.3z M443.2,54.9c0,5.7,3,9.8,7.6,9.8c6,0,7.8-4,7.8-10.2c0-6.3-1.9-9.8-7.7-9.8
				C445.4,44.7,443.2,49.4,443.2,54.9z"/>
			<path d="M468.8,49c0-2.1,0-4.1,0-6h2.4c0.1,0.8,0.1,3.9,0.1,4.6c1.1-2.4,3-5.1,8-5.1c4.3,0,8.1,2.4,8.1,9V67h-2.4V51.8
				c0-4.3-1.8-7.1-6-7.1c-5.7,0-7.7,4.8-7.7,10V67h-2.4V49z"/>
			<path d="M508.3,33.4H520c6.4,0,9.9,3.4,9.9,8.3c0,4-2.4,6.6-5.2,7.3c2.4,0.7,6.4,3,6.4,8.3c0,6.7-5,9.7-10.9,9.7h-11.9V33.4z
				 M519.2,47.8c5.8,0,8-2.2,8-6c0-3.3-2.3-6-7-6h-9.3v12H519.2z M510.8,64.6h9.5c4.4,0,8.1-2.2,8.1-7.2c0-4.3-2.7-7.2-9.5-7.2h-8.1
				V64.6z"/>
			<path d="M538.6,57.9c1,4.5,4,7.1,9.5,7.1c6.1,0,8.5-3.1,8.5-6.7c0-3.8-1.7-6.1-9.1-8c-7.1-1.8-10.2-4.1-10.2-8.9
				c0-4.4,3.2-8.5,10.4-8.5c7.4,0,10.5,4.5,10.9,8.6h-2.7c-0.8-3.6-3.1-6.2-8.4-6.2c-4.8,0-7.5,2.3-7.5,6c0,3.7,2.2,5.1,8.4,6.7
				c9.5,2.4,10.8,6.1,10.8,10.2c0,4.9-3.6,9.2-11.4,9.2c-8.4,0-11.5-4.9-12.1-9.4H538.6z"/>
			<path d="M581.9,29.5v50.1h-2.4V29.5H581.9z"/>
			<path d="M607.6,39.7l-4.1,19.2c-0.8,3.5-0.2,6.8,4.2,6.8c3.7,0,5.1-2.8,6-6.8l4.1-19.1h1.7l-4.1,19.2c-1.1,5-2.6,8.4-8.1,8.4
				c-4.6,0-6.5-3.2-5.5-8.1l4.2-19.5H607.6z"/>
			<path d="M620.8,61.8c-0.2,2.5,1.3,4,3.6,4c2.3,0,3.3-1.4,3.6-3c0.5-2.3-0.4-3.9-3-5.7c-3.1-2.2-4-3.7-3.4-6.7
				c0.6-2.6,2.6-3.8,4.9-3.8c3.8,0,4.8,2.9,4.6,5.2h-1.6c0.1-1.7-0.5-3.7-3.1-3.7c-1.4,0-2.7,0.7-3.1,2.5c-0.5,2.2,0.4,3.4,2.7,5
				c3.6,2.5,4.3,4.6,3.7,7.5c-0.6,2.5-2.5,4.1-5.4,4.1c-3.6,0-5.3-2.4-5-5.5H620.8z"/>
			<path d="M635.7,56.9c-0.3,1.6-0.5,3.1-0.5,4.3c0,2.9,0.9,4.5,3.3,4.5c2.7,0,3.8-2.3,4.3-3.4h1.6c-0.6,1.7-2.3,5-6.2,5
				c-5.5,0-5.2-6.2-4.1-10.8c1.5-6.8,4.2-9.9,7.8-9.9c4.2,0,5.5,3.5,4.2,8.8c0,0-0.4,1.5-0.4,1.5H635.7z M644.5,55.4
				c0.3-1.1,0.5-2.4,0.5-3.4c0-2.1-0.7-3.9-3.3-3.9c-2.9,0-4.7,3.2-5.7,7.3H644.5z"/>
			<path d="M650.7,53.7c0.7-3.1,1.1-5.2,1.4-6.8h1.6c-0.1,0.6-0.2,1.7-0.7,3.7c1.5-2.7,3.8-4,6-4l-0.5,1.9c-3.6,0.2-5.8,3.1-6.6,6.7
				L649.6,67h-1.7L650.7,53.7z"/>
			<path d="M679.3,53.2h-9.1l-2.6,12.2h10.6l-0.7,1.6h-12l5.8-27.2h11.3l-0.4,1.6h-9.6l-2.1,10.3h9.1L679.3,53.2z"/>
			<path d="M684.4,47c1.3,4.4,2.2,7.2,2.5,8.3h0c0.9-1.4,3.2-4.5,5.9-8.3h1.9l-7.2,9.8l3.2,10.2H689c-1.3-4.3-2.3-7.5-2.7-8.7h0
				c-0.8,1.2-3,4.3-6,8.7h-1.9l7.3-10.4l-3.1-9.7H684.4z"/>
			<path d="M695.5,64.3l-2.2,10.1h-1.7l4.6-21.7c0.6-2.8,0.9-4.5,1.2-5.8h1.6c0,0.4-0.2,1.7-0.5,2.8c1.1-1.9,2.6-3.1,5-3.1
				c3.6,0,5.5,3.4,3.7,11.2c-1.7,7.6-4.5,9.5-7.7,9.5C697,67.3,695.8,65.7,695.5,64.3z M705.5,57.7c1.5-6.8,0.2-9.5-2.3-9.5
				c-3.4,0-5.3,4-6.1,8.3c-1.3,6.5-0.5,9.3,2.7,9.3C702.1,65.8,704.2,63.5,705.5,57.7z"/>
			<path d="M712.5,56.9c-0.3,1.6-0.5,3.1-0.5,4.3c0,2.9,0.9,4.5,3.3,4.5c2.7,0,3.8-2.3,4.3-3.4h1.6c-0.6,1.7-2.3,5-6.2,5
				c-5.5,0-5.2-6.2-4.1-10.8c1.5-6.8,4.2-9.9,7.8-9.9c4.2,0,5.5,3.5,4.2,8.8c0,0-0.4,1.5-0.4,1.5H712.5z M721.3,55.4
				c0.3-1.1,0.5-2.4,0.5-3.4c0-2.1-0.7-3.9-3.3-3.9c-2.9,0-4.7,3.2-5.7,7.3H721.3z"/>
			<path d="M727.5,53.7c0.7-3.1,1.1-5.2,1.4-6.8h1.6c-0.1,0.6-0.2,1.7-0.7,3.7c1.5-2.7,3.8-4,6-4l-0.5,1.9c-3.6,0.2-5.8,3.1-6.6,6.7
				L726.4,67h-1.7L727.5,53.7z"/>
			<path d="M738.8,47h1.7l-4.2,20h-1.7L738.8,47z M740.6,38.5h1.7l-0.8,3.9h-1.7L740.6,38.5z"/>
			<path d="M744.4,56.9c-0.3,1.6-0.5,3.1-0.5,4.3c0,2.9,0.9,4.5,3.3,4.5c2.7,0,3.8-2.3,4.3-3.4h1.6c-0.6,1.7-2.3,5-6.2,5
				c-5.5,0-5.2-6.2-4.1-10.8c1.5-6.8,4.2-9.9,7.8-9.9c4.2,0,5.5,3.5,4.2,8.8c0,0-0.4,1.5-0.4,1.5H744.4z M753.2,55.4
				c0.3-1.1,0.5-2.4,0.5-3.4c0-2.1-0.7-3.9-3.3-3.9c-2.9,0-4.7,3.2-5.7,7.3H753.2z"/>
			<path d="M759.6,53.1c0.9-4.1,1.2-5.6,1.2-6.2h1.6c-0.1,0.6-0.3,1.9-0.6,3c1-1.8,2.5-3.3,5.2-3.3c2.6,0,4.8,1.7,3.8,6.4l-3,13.9
				h-1.7l2.9-13.7c0.6-3,0-5-2.5-5c-2.9,0-4.8,2.3-5.9,7.1L758.3,67h-1.7L759.6,53.1z"/>
			<path d="M785.2,61.7c-0.9,2.8-2.7,5.6-6.4,5.6c-4.7,0-5.7-4.2-4.3-10.7c1.4-6.3,4-10,7.9-10c4,0,4.8,2.9,4.4,6.1h-1.7
				c0.3-2.7-0.4-4.5-2.9-4.5c-2.1,0-4.5,1.6-6,8.6c-1.2,5.6-0.5,8.9,2.7,8.9c2.2,0,3.7-1.4,4.7-4H785.2z"/>
			<path d="M790.9,56.9c-0.3,1.6-0.5,3.1-0.5,4.3c0,2.9,0.9,4.5,3.3,4.5c2.7,0,3.8-2.3,4.3-3.4h1.6c-0.6,1.7-2.3,5-6.2,5
				c-5.5,0-5.2-6.2-4.1-10.8c1.5-6.8,4.2-9.9,7.8-9.9c4.2,0,5.5,3.5,4.2,8.8c0,0-0.4,1.5-0.4,1.5H790.9z M799.7,55.4
				c0.3-1.1,0.5-2.4,0.5-3.4c0-2.1-0.7-3.9-3.3-3.9c-2.9,0-4.7,3.2-5.7,7.3H799.7z"/>
			<path d="M830.7,54.4c1.1-5.3,2.3-10.3,2.9-13h0c-1.8,4-8.5,17.4-12.6,25.6h-1.9c-0.3-6.7-1.2-22.1-1.2-25.6h-0.1
				c-0.5,3.2-1.8,9-2.7,13.6l-2.5,12h-1.7l5.8-27.2h2.6c0.7,10.7,1.4,22.8,1.3,24.9h0c0.8-2.3,7.8-16,12.3-24.9h2.6L829.7,67H828
				L830.7,54.4z"/>
			<path d="M839.5,47h1.7l-4.2,20h-1.7L839.5,47z M841.3,38.5h1.7l-0.8,3.9h-1.7L841.3,38.5z"/>
			<path d="M845.2,53.1c0.9-4.1,1.2-5.6,1.2-6.2h1.6c-0.1,0.6-0.3,1.9-0.6,3c1-1.8,2.5-3.3,5.2-3.3c2.6,0,4.8,1.7,3.8,6.4l-3,13.9
				h-1.7l2.9-13.7c0.6-3,0-5-2.5-5c-2.9,0-4.8,2.3-5.9,7.1L843.9,67h-1.7L845.2,53.1z"/>
			<path d="M872.4,57.1c-1,5.3-3.2,10.2-8,10.2c-5,0-5.7-5.1-4.4-11c1.6-6.9,4.6-9.7,7.8-9.7C873.1,46.6,873.5,51.8,872.4,57.1z
				 M861.8,56.5c-1.2,5.4-0.7,9.3,2.8,9.3c3.4,0,5.1-4,6.1-8.6c0.9-4.1,1-8.9-2.9-8.9C865.4,48.3,863.1,50.8,861.8,56.5z"/>
			<path d="M877.5,53.7c0.7-3.1,1.1-5.2,1.4-6.8h1.6c-0.1,0.6-0.2,1.7-0.7,3.7c1.5-2.7,3.8-4,6-4l-0.5,1.9c-3.6,0.2-5.8,3.1-6.6,6.7
				L876.3,67h-1.7L877.5,53.7z"/>
		</g>
	</g>
	<g>
		<g>
			<path d="M160.7,191.4l-9.3-33.6h2.7c2.3,8.1,7.3,26.6,8.1,30.6h0c0.6-3.1,6.1-21.7,8.5-30.6h2.9c2.2,8.2,7.6,27.9,8.1,30.5h0
				c1.1-4.8,6.7-22.5,9-30.5h2.6l-10.3,33.6h-3c-2.2-7.9-7.4-27.4-8-30.2h0c-0.9,4.4-6,21.9-8.4,30.2H160.7z"/>
			<path d="M199,179.7c0,6.2,3.2,10,7.8,10c4.5,0,6-2.5,6.9-4.5h2.4c-1,3.2-3.6,6.8-9.5,6.8c-7.3,0-10.1-6.3-10.1-12.4
				c0-6.9,3.4-12.8,10.4-12.8c7.4,0,9.7,6.4,9.7,10.9c0,0.7,0,1.3,0,2H199z M214.2,177.6c0-4.8-2.6-8.5-7.3-8.5
				c-4.9,0-7.2,3.5-7.7,8.5H214.2z"/>
			<path d="M222.6,184.8c0.8,3.1,3,5,6.8,5c4.3,0,6-2,6-4.7c0-2.7-1.2-4.1-6.5-5.4c-6.2-1.5-7.7-3.4-7.7-6.5c0-3.3,2.5-6.4,7.9-6.4
				c5.4,0,8,3.3,8.4,6.7h-2.4c-0.4-2-2-4.5-6.1-4.5c-4.2,0-5.4,2.1-5.4,4c0,2.2,1.2,3.3,5.9,4.5c6.8,1.6,8.4,3.8,8.4,7.4
				c0,4.4-3.6,7.1-8.6,7.1c-5.5,0-8.5-2.9-9.2-7.2H222.6z"/>
			<path d="M240.3,167.4h4.5v-7.5h2.4v7.5h5.7v2.3h-5.7v15.6c0,2.7,0.6,4.2,2.9,4.2c0.7,0,1.7,0,2.5-0.3v2.1c-0.8,0.3-2,0.4-3,0.4
				c-3.1,0-4.8-1.5-4.8-5.4v-16.7h-4.5V167.4z"/>
			<path d="M258.3,179.7c0,6.2,3.2,10,7.8,10c4.5,0,6-2.5,6.9-4.5h2.4c-1,3.2-3.6,6.8-9.5,6.8c-7.3,0-10.1-6.3-10.1-12.4
				c0-6.9,3.4-12.8,10.4-12.8c7.4,0,9.7,6.4,9.7,10.9c0,0.7,0,1.3,0,2H258.3z M273.5,177.6c0-4.8-2.6-8.5-7.3-8.5
				c-4.9,0-7.2,3.5-7.7,8.5H273.5z"/>
			<path d="M281.8,173.9c0-4,0-5.8,0-6.5h2.4c0,0.8,0.1,2.3,0.1,5.4c1.4-3.6,4.5-5.8,8.4-6v2.6c-5,0.3-8.4,3.8-8.4,9.5v12.5h-2.4
				V173.9z"/>
			<path d="M297.4,173.4c0-2.1,0-4.1,0-6h2.4c0.1,0.8,0.1,3.9,0.1,4.6c1.1-2.4,3-5.1,8-5.1c4.3,0,8.1,2.4,8.1,9v15.6h-2.4v-15.2
				c0-4.3-1.8-7.1-6-7.1c-5.7,0-7.7,4.8-7.7,10v12.2h-2.4V173.4z"/>
			<path d="M342.8,191.4l-9.3-33.6h2.7c2.3,8.1,7.3,26.6,8.1,30.6h0c0.6-3.1,6.1-21.7,8.5-30.6h2.9c2.2,8.2,7.6,27.9,8.1,30.5h0
				c1.1-4.8,6.7-22.5,9-30.5h2.6l-10.3,33.6h-3c-2.2-7.9-7.4-27.4-8-30.2h0c-0.9,4.4-6,21.9-8.4,30.2H342.8z"/>
			<path d="M397,186.8c0,2.1,0.2,3.8,0.3,4.6h-2.3c-0.2-0.6-0.3-1.6-0.4-3.7c-0.8,1.8-2.9,4.3-7.9,4.3c-5.6,0-8-3.6-8-7.2
				c0-5.3,4.1-7.7,11.3-7.7c2,0,3.6,0,4.6,0v-2.4c0-2.4-0.7-5.6-6.2-5.6c-4.8,0-5.6,2.5-6.1,4.5H380c0.3-2.6,1.9-6.7,8.5-6.7
				c5.5,0,8.5,2.3,8.5,7.6V186.8z M394.7,179.1c-0.9,0-3.1,0-4.7,0c-5.3,0-8.6,1.4-8.6,5.5c0,3,2.2,5.1,5.5,5.1
				c6.9,0,7.8-4.6,7.8-9.7V179.1z"/>
			<path d="M405,184.8c0.8,3.1,3,5,6.8,5c4.3,0,6-2,6-4.7c0-2.7-1.2-4.1-6.5-5.4c-6.2-1.5-7.7-3.4-7.7-6.5c0-3.3,2.5-6.4,7.9-6.4
				c5.4,0,8,3.3,8.4,6.7h-2.4c-0.4-2-2-4.5-6.1-4.5c-4.2,0-5.4,2.1-5.4,4c0,2.2,1.2,3.3,5.9,4.5c6.8,1.6,8.4,3.8,8.4,7.4
				c0,4.4-3.6,7.1-8.6,7.1c-5.5,0-8.5-2.9-9.2-7.2H405z"/>
			<path d="M428.7,156v15.4c1.3-2.5,3.7-4.6,7.9-4.6c3.4,0,8.1,1.7,8.1,9.3v15.3h-2.4v-14.8c0-4.8-2.2-7.4-6.1-7.4
				c-4.8,0-7.5,2.9-7.5,8.8v13.4h-2.4V156H428.7z"/>
			<path d="M452.6,156h2.4v4.7h-2.4V156z M452.6,167.4h2.4v24h-2.4V167.4z"/>
			<path d="M462.9,173.4c0-2.1,0-4.1,0-6h2.4c0.1,0.8,0.1,3.9,0.1,4.6c1.1-2.4,3-5.1,8-5.1c4.3,0,8.1,2.4,8.1,9v15.6h-2.4v-15.2
				c0-4.3-1.8-7.1-6-7.1c-5.7,0-7.7,4.8-7.7,10v12.2h-2.4V173.4z"/>
			<path d="M507.5,189.7c0,7.7-3.4,11.7-10.4,11.7c-6.2,0-8.8-3.5-9.4-7.2h2.4c0.9,3.3,3.6,4.9,7.1,4.9c6.2,0,8-4,8-10.1v-2.5
				c-1.3,3.1-3.6,4.8-8,4.8c-5.6,0-9.9-4.6-9.9-12c0-8.1,4.6-12.6,10.3-12.6c4.9,0,7,2.3,7.7,4.2c0-1.4,0.1-3.1,0.1-3.6h2.3
				c0,0.9-0.1,4.7-0.1,7V189.7z M489.8,179.3c0,5.7,3,9.8,7.6,9.8c6,0,7.8-4,7.8-10.2c0-6.3-1.9-9.8-7.7-9.8
				C492,169.1,489.8,173.8,489.8,179.3z"/>
			<path d="M511.8,167.4h4.5v-7.5h2.4v7.5h5.7v2.3h-5.7v15.6c0,2.7,0.6,4.2,2.9,4.2c0.7,0,1.7,0,2.5-0.3v2.1c-0.8,0.3-2,0.4-3,0.4
				c-3.1,0-4.8-1.5-4.8-5.4v-16.7h-4.5V167.4z"/>
			<path d="M548.7,179.3c0,6.7-3.7,12.6-10.8,12.6c-6.5,0-10.5-5.3-10.5-12.6c0-6.9,3.8-12.6,10.8-12.6
				C544.5,166.8,548.7,171.8,548.7,179.3z M529.9,179.4c0,5.7,3.1,10.3,8.2,10.3c5.2,0,8.1-4.3,8.1-10.3c0-5.7-2.9-10.3-8.2-10.3
				C532.5,169.1,529.9,173.6,529.9,179.4z"/>
			<path d="M554.6,173.4c0-2.1,0-4.1,0-6h2.4c0.1,0.8,0.1,3.9,0.1,4.6c1.1-2.4,3-5.1,8-5.1c4.3,0,8.1,2.4,8.1,9v15.6h-2.4v-15.2
				c0-4.3-1.8-7.1-6-7.1c-5.7,0-7.7,4.8-7.7,10v12.2h-2.4V173.4z"/>
			<path d="M596.7,157.8v20.4c0,8.9,5,11.2,9.8,11.2c5.6,0,9.8-2.4,9.8-11.2v-20.4h2.6V178c0,10.5-5.6,13.8-12.5,13.8
				c-6.6,0-12.4-3.6-12.4-13.3v-20.6H596.7z"/>
			<path d="M627.3,173.4c0-2.1,0-4.1,0-6h2.4c0.1,0.8,0.1,3.9,0.1,4.6c1.1-2.4,3-5.1,8-5.1c4.3,0,8.1,2.4,8.1,9v15.6h-2.4v-15.2
				c0-4.3-1.8-7.1-6-7.1c-5.7,0-7.7,4.8-7.7,10v12.2h-2.4V173.4z"/>
			<path d="M653.6,156h2.4v4.7h-2.4V156z M653.6,167.4h2.4v24h-2.4V167.4z"/>
			<path d="M663.3,167.4c3.9,11,6.6,18.5,7.5,21.6h0c0.5-1.8,3.2-8.9,7.9-21.6h2.5l-9.1,24h-2.9l-8.5-24H663.3z"/>
			<path d="M686.5,179.7c0,6.2,3.2,10,7.8,10c4.5,0,6-2.5,6.9-4.5h2.4c-1,3.2-3.6,6.8-9.5,6.8c-7.3,0-10.1-6.3-10.1-12.4
				c0-6.9,3.4-12.8,10.4-12.8c7.4,0,9.7,6.4,9.7,10.9c0,0.7,0,1.3,0,2H686.5z M701.7,177.6c0-4.8-2.6-8.5-7.3-8.5
				c-4.9,0-7.2,3.5-7.7,8.5H701.7z"/>
			<path d="M710,173.9c0-4,0-5.8,0-6.5h2.4c0,0.8,0.1,2.3,0.1,5.4c1.4-3.6,4.5-5.8,8.4-6v2.6c-5,0.3-8.4,3.8-8.4,9.5v12.5H710V173.9
				z"/>
			<path d="M725.6,184.8c0.8,3.1,3,5,6.8,5c4.3,0,6-2,6-4.7c0-2.7-1.2-4.1-6.5-5.4c-6.2-1.5-7.7-3.4-7.7-6.5c0-3.3,2.5-6.4,7.9-6.4
				s8,3.3,8.4,6.7h-2.4c-0.4-2-2-4.5-6.1-4.5c-4.2,0-5.4,2.1-5.4,4c0,2.2,1.2,3.3,5.9,4.5c6.8,1.6,8.4,3.8,8.4,7.4
				c0,4.4-3.6,7.1-8.6,7.1c-5.5,0-8.5-2.9-9.2-7.2H725.6z"/>
			<path d="M746.9,156h2.4v4.7h-2.4V156z M746.9,167.4h2.4v24h-2.4V167.4z"/>
			<path d="M753.6,167.4h4.5v-7.5h2.4v7.5h5.7v2.3h-5.7v15.6c0,2.7,0.6,4.2,2.9,4.2c0.7,0,1.7,0,2.5-0.3v2.1c-0.8,0.3-2,0.4-3,0.4
				c-3.1,0-4.8-1.5-4.8-5.4v-16.7h-4.5V167.4z"/>
			<path d="M770.4,167.4c4.8,13.7,7,19.4,7.8,22h0c1-2.9,2.9-8.5,7.5-22h2.5l-9,25.4c-2.5,7.1-4.3,8.7-8.6,8.7c-0.9,0-1.4,0-2.2-0.1
				v-2.4c0.7,0.1,1.4,0.1,2.2,0.1c3.5,0,4.6-1.7,6.3-6.6l-9.2-25.1H770.4z"/>
			<path d="M809,153.9V204h-2.4v-50.1H809z"/>
			<path d="M825.5,191.4l0.1-0.5c0.7-3.1,3.8-7.2,8.1-11c4.4-4,5.2-5.1,5.9-7.8c0.6-2.5,0.2-5.9-3.2-5.9c-2.5,0-3.8,1.6-4.8,4.7
				h-1.7c0.9-3.3,2.6-6.3,6.7-6.3c4.6,0,5.4,4.1,4.7,7.6c-0.8,3.4-1.9,4.5-6.6,8.8c-3.6,3.4-6,6.4-6.9,8.8h11l-0.6,1.5H825.5z"/>
			<path d="M856.5,177.8c-2.2,9.9-4.4,13.9-8.7,13.9c-4.4,0-6.2-3.3-3.8-14c2.2-9.9,4.7-13.2,8.8-13.2
				C856.7,164.6,858.8,167.7,856.5,177.8z M845.7,177.9c-2,9.3-1,12.3,2.2,12.3c2.7,0,4.8-2.6,6.8-12.3c1.2-5.5,2.3-11.8-2.2-11.8
				C850,166.1,847.7,168.5,845.7,177.9z"/>
			<path d="M860.1,191.4l5.2-24.2c-1,0.7-3.3,1.3-4.2,1.5l0.3-1.6c1.6-0.3,3.7-1.3,4.8-2.3h1.3l-5.6,26.6H860.1z"/>
			<path d="M881.7,169.7c0-0.5,0.1-3.6-3.1-3.6c-2.9,0-4.9,2.7-6.9,11c1.1-1.7,2.8-3.1,5.3-3.1c4.1,0,5.4,3.9,4.4,9
				c-0.9,4.4-3,8.6-7.5,8.6c-5.7,0-5.6-6.2-4.2-12.6c2-9.4,4.2-14.5,9.2-14.5c4.1,0,4.6,3.3,4.6,5.1H881.7z M879.5,183
				c0.7-3.4,0.7-7.3-3.1-7.3c-3.5,0-5.2,4-5.6,6c-0.4,2.3-1.4,8.5,3.1,8.5C876.7,190.2,878.6,187.5,879.5,183z"/>
			<path d="M892.6,180.3l-0.4,1.6h-7.5l0.4-1.6H892.6z"/>
			<path d="M892.7,191.4l0.1-0.5c0.7-3.1,3.8-7.2,8.1-11c4.4-4,5.2-5.1,5.9-7.8c0.6-2.5,0.2-5.9-3.2-5.9c-2.5,0-3.8,1.6-4.8,4.7
				h-1.7c0.9-3.3,2.6-6.3,6.7-6.3c4.6,0,5.4,4.1,4.7,7.6c-0.8,3.4-1.9,4.5-6.6,8.8c-3.6,3.4-6,6.4-6.9,8.8h11l-0.6,1.5H892.7z"/>
			<path d="M923.7,177.8c-2.2,9.9-4.4,13.9-8.7,13.9c-4.4,0-6.2-3.3-3.8-14c2.2-9.9,4.7-13.2,8.8-13.2
				C923.9,164.6,926,167.7,923.7,177.8z M912.9,177.9c-2,9.3-1,12.3,2.2,12.3c2.7,0,4.8-2.6,6.8-12.3c1.2-5.5,2.3-11.8-2.2-11.8
				C917.2,166.1,914.9,168.5,912.9,177.9z"/>
			<path d="M924,191.4l0.1-0.5c0.7-3.1,3.8-7.2,8.1-11c4.4-4,5.2-5.1,5.9-7.8c0.6-2.5,0.2-5.9-3.2-5.9c-2.5,0-3.8,1.6-4.8,4.7h-1.7
				c0.9-3.3,2.6-6.3,6.7-6.3c4.6,0,5.4,4.1,4.7,7.6c-0.8,3.4-1.9,4.5-6.6,8.8c-3.6,3.4-6,6.4-6.9,8.8h11l-0.6,1.5H924z"/>
			<path d="M941.9,191.4l5.2-24.2c-1,0.7-3.3,1.3-4.2,1.5l0.3-1.6c1.6-0.3,3.7-1.3,4.8-2.3h1.3l-5.6,26.6H941.9z"/>
		</g>
	</g>
	<g>
		<g>
			<path d="M154.8,301.5h11.7c6.4,0,9.9,3.4,9.9,8.3c0,4-2.4,6.6-5.2,7.3c2.4,0.7,6.4,3,6.4,8.3c0,6.7-5,9.7-10.9,9.7h-11.9V301.5z
				 M165.7,315.9c5.8,0,8-2.2,8-6c0-3.3-2.3-6-7-6h-9.3v12H165.7z M157.4,332.7h9.5c4.4,0,8.1-2.2,8.1-7.2c0-4.3-2.7-7.2-9.5-7.2
				h-8.1V332.7z"/>
			<path d="M184.7,323.4c0,6.2,3.2,10,7.8,10c4.5,0,6-2.5,6.9-4.5h2.4c-1,3.2-3.6,6.8-9.5,6.8c-7.3,0-10.1-6.3-10.1-12.4
				c0-6.9,3.4-12.8,10.4-12.8c7.4,0,9.7,6.4,9.7,10.9c0,0.7,0,1.3,0,2H184.7z M199.9,321.2c0-4.8-2.6-8.5-7.3-8.5
				c-4.9,0-7.2,3.5-7.7,8.5H199.9z"/>
			<path d="M208.3,335.1v-35.4h2.4v35.4H208.3z"/>
			<path d="M218.5,335.1v-35.4h2.4v35.4H218.5z"/>
			<path d="M228.8,299.7h2.4v4.7h-2.4V299.7z M228.8,311.1h2.4v24h-2.4V311.1z"/>
			<path d="M239.1,317.1c0-2.1,0-4.1,0-6h2.4c0.1,0.8,0.1,3.9,0.1,4.6c1.1-2.4,3-5.1,8-5.1c4.3,0,8.1,2.4,8.1,9v15.6h-2.4v-15.2
				c0-4.3-1.8-7.1-6-7.1c-5.7,0-7.7,4.8-7.7,10v12.2h-2.4V317.1z"/>
			<path d="M283.7,333.4c0,7.7-3.4,11.7-10.4,11.7c-6.2,0-8.8-3.5-9.4-7.2h2.4c0.9,3.3,3.6,4.9,7.1,4.9c6.2,0,8-4,8-10.1v-2.5
				c-1.3,3.1-3.6,4.8-8,4.8c-5.6,0-9.9-4.6-9.9-12c0-8.1,4.6-12.6,10.3-12.6c4.9,0,7,2.3,7.7,4.2c0-1.4,0.1-3.1,0.1-3.6h2.3
				c0,0.9-0.1,4.7-0.1,7V333.4z M266,323c0,5.7,3,9.8,7.6,9.8c6,0,7.8-4,7.8-10.2c0-6.3-1.9-9.8-7.7-9.8
				C268.3,312.7,266,317.5,266,323z"/>
			<path d="M294,299.7v15.4c1.3-2.5,3.7-4.6,7.9-4.6c3.4,0,8.1,1.7,8.1,9.3v15.3h-2.4v-14.8c0-4.8-2.2-7.4-6.1-7.4
				c-4.8,0-7.5,2.9-7.5,8.8v13.4h-2.4v-35.4H294z"/>
			<path d="M334.4,330.5c0,2.1,0.2,3.8,0.3,4.6h-2.3c-0.2-0.6-0.3-1.6-0.4-3.7c-0.8,1.8-2.9,4.3-7.9,4.3c-5.6,0-8-3.6-8-7.2
				c0-5.3,4.1-7.7,11.3-7.7c2,0,3.6,0,4.6,0v-2.4c0-2.4-0.7-5.6-6.2-5.6c-4.8,0-5.6,2.5-6.1,4.5h-2.4c0.3-2.6,1.9-6.7,8.5-6.7
				c5.5,0,8.5,2.3,8.5,7.6V330.5z M332,322.8c-0.9,0-3.1,0-4.7,0c-5.3,0-8.6,1.4-8.6,5.5c0,3,2.2,5.1,5.5,5.1c6.9,0,7.8-4.6,7.8-9.7
				V322.8z"/>
			<path d="M342.3,317.3c0-2.1,0-4.3,0-6.2h2.4c0,0.8,0.1,2.9,0.1,4.3c1-2.4,3.2-4.8,7.2-4.8c3.4,0,6,1.7,7,4.8
				c1.2-2.5,3.6-4.8,7.8-4.8c3.7,0,7.5,2.1,7.5,8.8v15.8h-2.4v-15.5c0-3.2-1.2-6.7-5.6-6.7c-4.7,0-6.8,3.7-6.8,8.4v13.8h-2.4v-15.5
				c0-3.5-1.1-6.8-5.5-6.8c-4.7,0-6.9,4.1-6.9,9v13.2h-2.4V317.3z"/>
			<path d="M378.2,340.5c2.4-4.7,3.2-8.9,3.4-11.6h2.4c-0.3,4-1.9,8.7-3.6,11.6H378.2z"/>
			<path d="M409.2,335.1l-9.3-33.6h2.7c2.3,8.1,7.3,26.6,8.1,30.6h0c0.6-3.1,6.1-21.7,8.5-30.6h2.9c2.2,8.2,7.6,27.9,8.1,30.5h0
				c1.1-4.8,6.7-22.5,9-30.5h2.6l-10.3,33.6h-3c-2.2-7.9-7.4-27.4-8-30.2h0c-0.9,4.4-6,21.9-8.4,30.2H409.2z"/>
			<path d="M463.5,330.5c0,2.1,0.2,3.8,0.3,4.6h-2.3c-0.2-0.6-0.3-1.6-0.4-3.7c-0.8,1.8-2.9,4.3-7.9,4.3c-5.6,0-8-3.6-8-7.2
				c0-5.3,4.1-7.7,11.3-7.7c2,0,3.6,0,4.6,0v-2.4c0-2.4-0.7-5.6-6.2-5.6c-4.8,0-5.6,2.5-6.1,4.5h-2.4c0.3-2.6,1.9-6.7,8.5-6.7
				c5.5,0,8.5,2.3,8.5,7.6V330.5z M461.1,322.8c-0.9,0-3.1,0-4.7,0c-5.3,0-8.6,1.4-8.6,5.5c0,3,2.2,5.1,5.5,5.1
				c6.9,0,7.8-4.6,7.8-9.7V322.8z"/>
			<path d="M471.4,328.4c0.8,3.1,3,5,6.8,5c4.3,0,6-2,6-4.7c0-2.7-1.2-4.1-6.5-5.4c-6.2-1.5-7.7-3.4-7.7-6.5c0-3.3,2.5-6.4,7.9-6.4
				c5.4,0,8,3.3,8.4,6.7h-2.4c-0.4-2-2-4.5-6.1-4.5c-4.2,0-5.4,2.1-5.4,4c0,2.2,1.2,3.3,5.9,4.5c6.8,1.6,8.4,3.8,8.4,7.4
				c0,4.4-3.6,7.1-8.6,7.1c-5.5,0-8.5-2.9-9.2-7.2H471.4z"/>
			<path d="M495.1,299.7v15.4c1.3-2.5,3.7-4.6,7.9-4.6c3.4,0,8.1,1.7,8.1,9.3v15.3h-2.4v-14.8c0-4.8-2.2-7.4-6.1-7.4
				c-4.8,0-7.5,2.9-7.5,8.8v13.4h-2.4v-35.4H495.1z"/>
			<path d="M519,299.7h2.4v4.7H519V299.7z M519,311.1h2.4v24H519V311.1z"/>
			<path d="M529.3,317.1c0-2.1,0-4.1,0-6h2.4c0.1,0.8,0.1,3.9,0.1,4.6c1.1-2.4,3-5.1,8-5.1c4.3,0,8.1,2.4,8.1,9v15.6h-2.4v-15.2
				c0-4.3-1.8-7.1-6-7.1c-5.7,0-7.7,4.8-7.7,10v12.2h-2.4V317.1z"/>
			<path d="M573.9,333.4c0,7.7-3.4,11.7-10.4,11.7c-6.2,0-8.8-3.5-9.4-7.2h2.4c0.9,3.3,3.6,4.9,7.1,4.9c6.2,0,8-4,8-10.1v-2.5
				c-1.3,3.1-3.6,4.8-8,4.8c-5.6,0-9.9-4.6-9.9-12c0-8.1,4.6-12.6,10.3-12.6c4.9,0,7,2.3,7.7,4.2c0-1.4,0.1-3.1,0.1-3.6h2.3
				c0,0.9-0.1,4.7-0.1,7V333.4z M556.2,323c0,5.7,3,9.8,7.6,9.8c6,0,7.8-4,7.8-10.2c0-6.3-1.9-9.8-7.7-9.8
				C558.5,312.7,556.2,317.5,556.2,323z"/>
			<path d="M578.2,311.1h4.5v-7.5h2.4v7.5h5.7v2.3h-5.7v15.6c0,2.7,0.6,4.2,2.9,4.2c0.7,0,1.7,0,2.5-0.3v2.1c-0.8,0.3-2,0.4-3,0.4
				c-3.1,0-4.8-1.5-4.8-5.4v-16.7h-4.5V311.1z"/>
			<path d="M615.1,323c0,6.7-3.7,12.6-10.8,12.6c-6.5,0-10.5-5.3-10.5-12.6c0-6.9,3.8-12.6,10.8-12.6
				C610.9,310.5,615.1,315.5,615.1,323z M596.3,323.1c0,5.7,3.1,10.3,8.2,10.3c5.2,0,8.1-4.3,8.1-10.3c0-5.7-2.9-10.3-8.2-10.3
				C598.9,312.7,596.3,317.3,596.3,323.1z"/>
			<path d="M621.1,317.1c0-2.1,0-4.1,0-6h2.4c0.1,0.8,0.1,3.9,0.1,4.6c1.1-2.4,3-5.1,8-5.1c4.3,0,8.1,2.4,8.1,9v15.6h-2.4v-15.2
				c0-4.3-1.8-7.1-6-7.1c-5.7,0-7.7,4.8-7.7,10v12.2h-2.4V317.1z"/>
		</g>
	</g>
	<g>
		<g>
			<path d="M155.1,458.2c1,4.5,4,7.1,9.5,7.1c6.1,0,8.5-3.1,8.5-6.7c0-3.8-1.7-6.1-9.1-8c-7.1-1.8-10.2-4.1-10.2-8.9
				c0-4.4,3.2-8.5,10.4-8.5c7.4,0,10.5,4.5,10.9,8.6h-2.7c-0.8-3.6-3.1-6.2-8.4-6.2c-4.8,0-7.5,2.3-7.5,6c0,3.7,2.2,5.1,8.4,6.7
				c9.5,2.4,10.8,6.1,10.8,10.2c0,4.9-3.6,9.2-11.4,9.2c-8.4,0-11.5-4.9-12.1-9.4H155.1z"/>
			<path d="M184.6,455.6c2.2-2.4,8.9-9.2,12.1-12.4h3.1l-9.5,9.6l10.7,14.4h-3l-9.5-12.9l-4,3.8v9.1h-2.4v-35.4h2.4V455.6z"/>
			<path d="M204.8,431.9h2.4v4.7h-2.4V431.9z M204.8,443.2h2.4v24h-2.4V443.2z"/>
			<path d="M215,467.3v-35.4h2.4v35.4H215z"/>
			<path d="M225.3,467.3v-35.4h2.4v35.4H225.3z"/>
			<path d="M235.6,460.6c0.8,3.1,3,5,6.8,5c4.3,0,6-2,6-4.7c0-2.7-1.2-4.1-6.5-5.4c-6.2-1.5-7.7-3.4-7.7-6.5c0-3.3,2.5-6.4,7.9-6.4
				c5.4,0,8,3.3,8.4,6.7h-2.4c-0.4-2-2-4.5-6.1-4.5c-4.2,0-5.4,2.1-5.4,4c0,2.2,1.2,3.3,5.9,4.5c6.8,1.6,8.4,3.8,8.4,7.4
				c0,4.4-3.6,7.1-8.6,7.1c-5.5,0-8.5-2.9-9.2-7.2H235.6z"/>
			<path d="M273,429.8v50.1h-2.4v-50.1H273z"/>
			<path d="M306.2,460.4c-0.9,3.1-2.8,7.3-7.7,7.3c-4.6,0-7.4-3.4-5.1-14.5c1.7-8.2,4.9-13.5,9.9-13.5c5.6,0,5.6,5.2,5.4,7.2h-1.7
				c0-1.8,0.1-5.6-3.8-5.6c-3.9,0-6.6,4.7-8.1,12c-2.1,10.3,0.3,12.8,3.5,12.8c3.7,0,5.3-4.1,5.7-5.7H306.2z"/>
			<path d="M313.1,457.5l-4.4,9.8h-1.8c0,0,12.3-27.2,12.3-27.2h2.3l1,27.2h-1.7l-0.3-9.8H313.1z M320.5,455.9
				c-0.2-8.3-0.5-12.4-0.3-14.4H320c-1,2.6-3.3,7.9-6.2,14.4H320.5z"/>
			<path d="M331.3,440h4.5c6.3,0,8.4,5,6.4,14.4c-1.8,8.4-4.2,12.9-11.7,12.9h-5L331.3,440z M327.6,465.7h3.3c5.5,0,7.9-3,9.7-11.3
				c1.9-8.9,0.2-12.8-4.9-12.8h-3L327.6,465.7z"/>
			<path d="M360.1,456.1l-0.4,1.6h-7.5l0.4-1.6H360.1z"/>
			<path d="M371.5,460.3c0,3.7,1.7,5.7,4.9,5.7c2.6,0,4.5-1.5,5.1-4.4c0.6-2.7-0.2-5.2-3.9-8.1c-3.6-2.8-5.2-5.2-4.4-9
				c0.6-2.9,2.8-4.9,6.2-4.9c4.8,0,6.3,3.7,5.8,7.1h-1.7c0.2-2.8-0.7-5.5-4.4-5.5c-2.5,0-3.9,1.4-4.3,3.6c-0.5,2.8,0.4,4.6,3.8,7.3
				c4.4,3.6,5.3,6.3,4.5,9.8c-0.8,3.5-3.2,5.7-6.9,5.7c-5.3,0-6.6-3.7-6.5-7.3H371.5z"/>
			<path d="M399.6,457.4c-1,5.3-3.2,10.2-8,10.2c-5,0-5.7-5.1-4.4-11c1.6-6.9,4.6-9.7,7.8-9.7C400.2,446.9,400.6,452.1,399.6,457.4z
				 M388.9,456.7c-1.2,5.4-0.7,9.3,2.8,9.3c3.4,0,5.1-4,6.1-8.6c0.9-4.1,1-8.9-2.9-8.9C392.5,448.5,390.2,451.1,388.9,456.7z"/>
			<path d="M401.8,467.3l6.1-28.5h1.7l-6.1,28.5H401.8z"/>
			<path d="M412.9,447.2h1.7l-4.2,20h-1.7L412.9,447.2z M414.8,438.7h1.7l-0.8,3.9h-1.7L414.8,438.7z"/>
			<path d="M433,438.7l-5,23.7c-0.4,1.7-0.8,3.5-1,4.9h-1.6c0-0.5,0.2-1.4,0.5-2.7c-1,1.7-2.4,3.1-5,3.1c-4.5,0-5.1-4.9-3.8-10.9
				c1-4.7,3.4-9.8,7.9-9.8c2.9,0,3.9,1.7,4.1,2.9l2.4-11.1H433z M418.6,457c-1,4.6-1.1,9.1,2.7,9.1c3.5,0,5.1-4,6.3-9.6
				c1.2-5.6,0.4-8-2.8-8C421.8,448.5,419.7,451.9,418.6,457z"/>
			<path d="M436.1,447.2c0.1,9.8,0.1,14.9-0.1,18.1h0c0.9-2.4,2.3-5.7,7.8-18.1h1.8c0,11.8,0.1,15.2,0,18.1h0
				c0.7-2.4,2.5-6.3,7.6-18.1h1.8l-9,20h-1.9c0-7.2-0.2-15.3,0-17.9h0c-1,3-3.9,9.6-7.6,17.9h-2l-0.3-20H436.1z"/>
			<path d="M468,457.4c-1,5.3-3.2,10.2-8,10.2c-5,0-5.7-5.1-4.4-11c1.6-6.9,4.6-9.7,7.8-9.7C468.7,446.9,469.1,452.1,468,457.4z
				 M457.4,456.7c-1.2,5.4-0.7,9.3,2.8,9.3c3.4,0,5.1-4,6.1-8.6c0.9-4.1,1-8.9-2.9-8.9C461,448.5,458.7,451.1,457.4,456.7z"/>
			<path d="M473.1,454c0.7-3.1,1.1-5.2,1.4-6.8h1.6c-0.1,0.6-0.2,1.7-0.7,3.7c1.5-2.7,3.8-4,6-4l-0.5,1.9c-3.6,0.2-5.8,3.1-6.6,6.7
				l-2.5,11.6h-1.7L473.1,454z"/>
			<path d="M484,457.1c1.7-1.9,6.8-7.2,9.2-9.9h2c-2.4,2.7-4.7,5-7.2,7.6l3.7,12.4h-1.7l-3.2-11.1c-0.7,0.7-2.4,2.4-3.1,3.1l-1.7,8
				h-1.7l6.1-28.5h1.7L484,457.1z"/>
			<path d="M495.8,462c-0.2,2.5,1.3,4,3.6,4c2.3,0,3.3-1.4,3.6-3c0.5-2.3-0.4-3.9-3-5.7c-3.1-2.2-4-3.7-3.4-6.7
				c0.6-2.6,2.6-3.8,4.9-3.8c3.8,0,4.8,2.9,4.6,5.2h-1.6c0.1-1.7-0.5-3.7-3.1-3.7c-1.4,0-2.7,0.7-3.1,2.5c-0.5,2.2,0.4,3.4,2.7,5
				c3.6,2.5,4.3,4.6,3.7,7.5c-0.6,2.5-2.5,4.1-5.4,4.1c-3.6,0-5.3-2.4-5-5.5H495.8z"/>
			<path d="M504.4,472c1.8-2.9,3.2-6.4,3.9-9.2h1.7c-0.8,3.4-2.7,7.4-4.1,9.2H504.4z"/>
			<path d="M525.5,453.9l-2.8,13.4H521l5.8-27.2h5.7c4.2,0,6.3,3,5.4,7.3c-0.8,4.3-3.6,5.3-5,5.8c2.4,1,3,3.3,2.2,7.2
				c-0.5,2.5-1.2,5.2-1.1,7h-1.6c0-0.1-0.5-0.3,1.2-7.6c0.8-3.9-0.2-5.8-4.1-5.8H525.5z M525.9,452.3h3.6c3.5,0,6-1.2,6.7-5
				c0.6-3.3-0.5-5.6-4.2-5.6h-3.8L525.9,452.3z"/>
			<path d="M546,438.7l-2.5,11.4c1-1.9,2.8-3.3,5.3-3.3c2.7,0,4.7,1.7,3.7,6.1l-3,14.2h-1.7l3-13.9c0.6-2.8,0.3-4.8-2.6-4.8
				c-3.1,0-5,2.9-5.8,7l-2.4,11.7h-1.7l6.1-28.5H546z"/>
			<path d="M559.1,447.2h1.7l-4.2,20h-1.7L559.1,447.2z M560.9,438.7h1.7l-0.8,3.9h-1.7L560.9,438.7z"/>
			<path d="M564.8,453.4c0.9-4.1,1.2-5.6,1.2-6.2h1.6c-0.1,0.6-0.3,1.9-0.6,3c1-1.8,2.5-3.3,5.2-3.3c2.6,0,4.8,1.7,3.8,6.4l-3,13.9
				h-1.7l2.9-13.7c0.6-3,0-5-2.5-5c-2.9,0-4.8,2.3-5.9,7.1l-2.4,11.6h-1.7L564.8,453.4z"/>
			<path d="M592,457.4c-1,5.3-3.2,10.2-8,10.2c-5,0-5.7-5.1-4.4-11c1.6-6.9,4.6-9.7,7.8-9.7C592.6,446.9,593.1,452.1,592,457.4z
				 M581.4,456.7c-1.2,5.4-0.7,9.3,2.8,9.3c3.4,0,5.1-4,6.1-8.6c0.9-4.1,1-8.9-2.9-8.9C585,448.5,582.7,451.1,581.4,456.7z"/>
			<path d="M598.3,445.8c0.8-2.6,2.4-5.3,6.1-5.3c4.4,0,5.2,3.8,4.5,7.2c-0.6,3.2-2.4,4.6-3.9,5.1v0c2.7,1.2,3.2,4.3,2.4,8
				c-0.9,3.8-3.1,6.7-7.1,6.7c-4.7,0-5.5-3.6-5.3-6.2h1.7c0,2.1,0.4,4.6,3.8,4.6c3.4,0,4.6-2.9,5.1-5.4c1-4.3,0.1-7.1-4.1-7.1h-0.8
				l0.3-1.5h0.8c3.2,0,4.7-1.4,5.4-4.6c0.5-2.2,0.3-5.3-3.1-5.3c-2.3,0-3.5,1.8-4.2,3.7H598.3z"/>
			<path d="M616.2,440h4.5c6.3,0,8.4,5,6.4,14.4c-1.8,8.4-4.2,12.9-11.7,12.9h-5L616.2,440z M612.4,465.7h3.3c5.5,0,7.9-3,9.7-11.3
				c1.9-8.9,0.2-12.8-4.9-12.8h-3L612.4,465.7z"/>
			<path d="M625.3,472c1.8-2.9,3.2-6.4,3.9-9.2h1.7c-0.8,3.4-2.7,7.4-4.1,9.2H625.3z"/>
			<path d="M647.7,440h5c4.8,0,6.3,3.1,5.5,7.4c-0.7,3.4-2.9,4.9-4.8,5.3c2.6,1,4,3.6,3.1,7.9c-0.6,3.3-2.8,6.7-8.1,6.7h-6.5
				L647.7,440z M643.9,465.7h4.6c3.5,0,5.7-1.7,6.4-5.4c0.8-4.1-0.7-7-5.1-7h-3.2L643.9,465.7z M650.3,451.8c3.5,0,5.6-1.4,6.2-4.4
				c0.6-3.1,0.1-5.7-4.3-5.7H649l-2.1,10.2H650.3z"/>
			<path d="M659.1,467.3l6.1-28.5h1.7l-6.1,28.5H659.1z"/>
			<path d="M668.9,457.2c-0.3,1.6-0.5,3.1-0.5,4.3c0,2.9,0.9,4.5,3.3,4.5c2.7,0,3.8-2.3,4.3-3.4h1.6c-0.6,1.7-2.3,5-6.2,5
				c-5.5,0-5.2-6.2-4.1-10.8c1.5-6.8,4.2-9.9,7.8-9.9c4.2,0,5.5,3.5,4.2,8.8l-0.4,1.5H668.9z M677.6,455.7c0.3-1.1,0.5-2.4,0.5-3.4
				c0-2.1-0.7-3.9-3.3-3.9c-2.9,0-4.7,3.2-5.7,7.3H677.6z"/>
			<path d="M684,453.4c0.9-4.1,1.2-5.6,1.2-6.2h1.6c-0.1,0.6-0.3,1.9-0.6,3c1-1.8,2.5-3.3,5.2-3.3c2.6,0,4.8,1.7,3.8,6.4l-3,13.9
				h-1.7l2.9-13.7c0.6-3,0-5-2.5-5c-2.9,0-4.8,2.3-5.9,7.1l-2.4,11.6h-1.7L684,453.4z"/>
			<path d="M715,438.7l-5,23.7c-0.4,1.7-0.8,3.5-1,4.9h-1.6c0-0.5,0.2-1.4,0.5-2.7c-1,1.7-2.4,3.1-5,3.1c-4.5,0-5.1-4.9-3.8-10.9
				c1-4.7,3.4-9.8,7.9-9.8c2.9,0,3.9,1.7,4.1,2.9l2.4-11.1H715z M700.6,457c-1,4.6-1.1,9.1,2.7,9.1c3.5,0,5.1-4,6.3-9.6
				c1.2-5.6,0.4-8-2.8-8C703.8,448.5,701.7,451.9,700.6,457z"/>
			<path d="M717,457.2c-0.3,1.6-0.5,3.1-0.5,4.3c0,2.9,0.9,4.5,3.3,4.5c2.7,0,3.8-2.3,4.3-3.4h1.6c-0.6,1.7-2.3,5-6.2,5
				c-5.5,0-5.2-6.2-4.1-10.8c1.5-6.8,4.2-9.9,7.8-9.9c4.2,0,5.5,3.5,4.2,8.8l-0.4,1.5H717z M725.8,455.7c0.3-1.1,0.5-2.4,0.5-3.4
				c0-2.1-0.7-3.9-3.3-3.9c-2.9,0-4.7,3.2-5.7,7.3H725.8z"/>
			<path d="M732,454c0.7-3.1,1.1-5.2,1.4-6.8h1.6c-0.1,0.6-0.2,1.7-0.7,3.7c1.5-2.7,3.8-4,6-4l-0.5,1.9c-3.6,0.2-5.8,3.1-6.6,6.7
				l-2.5,11.6h-1.7L732,454z"/>
			<path d="M745.2,468.1l13.3-28.2h1.6l-13.3,28.2H745.2z"/>
			<path d="M767.9,460.3c0,3.7,1.7,5.7,4.9,5.7c2.6,0,4.5-1.5,5.1-4.4c0.6-2.7-0.2-5.2-3.9-8.1c-3.6-2.8-5.2-5.2-4.4-9
				c0.6-2.9,2.8-4.9,6.2-4.9c4.8,0,6.3,3.7,5.8,7.1H780c0.2-2.8-0.7-5.5-4.4-5.5c-2.5,0-3.9,1.4-4.3,3.6c-0.5,2.8,0.4,4.6,3.8,7.3
				c4.4,3.6,5.3,6.3,4.5,9.8c-0.8,3.5-3.2,5.7-6.9,5.7c-5.3,0-6.6-3.7-6.5-7.3H767.9z"/>
			<path d="M786.2,457.1c1.7-1.9,6.8-7.2,9.2-9.9h2c-2.4,2.7-4.7,5-7.2,7.6c0,0,3.7,12.4,3.7,12.4h-1.7l-3.2-11.1
				c-0.7,0.7-2.4,2.4-3.1,3.1l-1.7,8h-1.7l6.1-28.5h1.7L786.2,457.1z"/>
			<path d="M799.1,457.2c-0.3,1.6-0.5,3.1-0.5,4.3c0,2.9,0.9,4.5,3.3,4.5c2.7,0,3.8-2.3,4.3-3.4h1.6c-0.6,1.7-2.3,5-6.2,5
				c-5.5,0-5.2-6.2-4.1-10.8c1.5-6.8,4.2-9.9,7.8-9.9c4.2,0,5.5,3.5,4.2,8.8l-0.4,1.5H799.1z M807.9,455.7c0.3-1.1,0.5-2.4,0.5-3.4
				c0-2.1-0.7-3.9-3.3-3.9c-2.9,0-4.7,3.2-5.7,7.3H807.9z"/>
			<path d="M812.8,447.2h3.1l1.2-5.6h1.6l-1.2,5.6h3.6l-0.3,1.5h-3.6l-3,14.1c-0.4,1.7-0.4,3.1,1.4,3.1c0.9,0,1.4-0.2,1.8-0.2
				l-0.3,1.4c-0.5,0.2-1.2,0.3-2,0.3c-2.2,0-3.3-1.1-2.7-4.1l3.1-14.7h-3.1L812.8,447.2z"/>
			<path d="M831.9,462c-0.9,2.8-2.7,5.6-6.4,5.6c-4.7,0-5.7-4.2-4.3-10.7c1.4-6.3,4-10,7.9-10c4,0,4.8,2.9,4.4,6.1h-1.7
				c0.3-2.7-0.4-4.5-2.9-4.5c-2.1,0-4.5,1.6-6,8.6c-1.2,5.6-0.5,8.9,2.7,8.9c2.2,0,3.7-1.4,4.7-4H831.9z"/>
			<path d="M842.5,438.7l-2.5,11.4c1-1.9,2.8-3.3,5.3-3.3c2.7,0,4.7,1.7,3.7,6.1l-3,14.2h-1.7l3-13.9c0.6-2.8,0.3-4.8-2.6-4.8
				c-3.1,0-5,2.9-5.8,7l-2.4,11.7h-1.7l6.1-28.5H842.5z"/>
			<path d="M855.6,447.2h1.7l-4.2,20h-1.7L855.6,447.2z M857.4,438.7h1.7l-0.8,3.9h-1.7L857.4,438.7z"/>
			<path d="M861.3,453.4c0.9-4.1,1.2-5.6,1.2-6.2h1.6c-0.1,0.6-0.3,1.9-0.6,3c1-1.8,2.5-3.3,5.2-3.3c2.6,0,4.8,1.7,3.8,6.4l-3,13.9
				H868l2.9-13.7c0.6-3,0-5-2.5-5c-2.9,0-4.8,2.3-5.9,7.1l-2.4,11.6h-1.7L861.3,453.4z"/>
			<path d="M886.3,466.4c-1.1,5.1-2.6,8.6-7.4,8.6c-4.9,0-5.3-3.4-5.1-5.5h1.7c0,1.7,0.4,4,3.6,4c3.3,0,4.7-2.9,5.6-7l0.6-2.5
				c-1.1,2.1-2.7,3.3-5.1,3.3c-4.6,0-5-5.1-3.9-10.2c1.3-6.1,3.9-10.2,7.9-10.2c2.7,0,3.8,1.7,4,3.2c0.2-1,0.6-2.4,0.8-2.9h1.6
				c-0.2,0.8-0.7,3-1.3,5.6L886.3,466.4z M877.8,457.4c-0.9,4.6-0.7,8.3,2.5,8.3c3.7,0,5.4-4.5,6.2-8.5c1.2-5.7,0.6-8.7-2.7-8.7
				C880.8,448.5,878.8,452.4,877.8,457.4z"/>
			<path d="M897.5,468.1l13.3-28.2h1.6l-13.3,28.2H897.5z"/>
			<path d="M922.9,453.9l-2.8,13.4h-1.7l5.8-27.2h5.7c4.2,0,6.3,3,5.4,7.3c-0.8,4.3-3.6,5.3-5,5.8c2.4,1,3,3.3,2.2,7.2
				c-0.5,2.5-1.2,5.2-1.1,7h-1.6c0-0.1-0.5-0.3,1.2-7.6c0.8-3.9-0.2-5.8-4.1-5.8H922.9z M923.3,452.3h3.6c3.5,0,6-1.2,6.7-5
				c0.6-3.3-0.5-5.6-4.2-5.6h-3.8L923.3,452.3z"/>
			<path d="M938.6,457.2c-0.3,1.6-0.5,3.1-0.5,4.3c0,2.9,0.9,4.5,3.3,4.5c2.7,0,3.8-2.3,4.3-3.4h1.6c-0.6,1.7-2.3,5-6.2,5
				c-5.5,0-5.2-6.2-4.1-10.8c1.5-6.8,4.2-9.9,7.8-9.9c4.2,0,5.5,3.5,4.2,8.8l-0.4,1.5H938.6z M947.3,455.7c0.3-1.1,0.5-2.4,0.5-3.4
				c0-2.1-0.7-3.9-3.3-3.9c-2.9,0-4.7,3.2-5.7,7.3H947.3z"/>
			<path d="M953.7,453.4c0.9-4.1,1.2-5.6,1.2-6.2h1.6c-0.1,0.6-0.3,1.9-0.6,3c1-1.8,2.5-3.3,5.2-3.3c2.6,0,4.8,1.7,3.8,6.4l-3,13.9
				h-1.7l2.9-13.7c0.6-3,0-5-2.5-5c-2.9,0-4.8,2.3-5.9,7.1l-2.4,11.6h-1.7L953.7,453.4z"/>
			<path d="M984.7,438.7l-5,23.7c-0.4,1.7-0.8,3.5-1,4.9h-1.6c0-0.5,0.2-1.4,0.5-2.7c-1,1.7-2.4,3.1-5,3.1c-4.5,0-5.1-4.9-3.8-10.9
				c1-4.7,3.4-9.8,7.9-9.8c2.9,0,3.9,1.7,4.1,2.9l2.4-11.1H984.7z M970.3,457c-1,4.6-1.1,9.1,2.7,9.1c3.5,0,5.1-4,6.3-9.6
				c1.2-5.6,0.4-8-2.8-8C973.4,448.5,971.4,451.9,970.3,457z"/>
			<path d="M986.7,457.2c-0.3,1.6-0.5,3.1-0.5,4.3c0,2.9,0.9,4.5,3.3,4.5c2.7,0,3.8-2.3,4.3-3.4h1.6c-0.6,1.7-2.3,5-6.2,5
				c-5.5,0-5.2-6.2-4.1-10.8c1.5-6.8,4.2-9.9,7.8-9.9c4.2,0,5.5,3.5,4.2,8.8l-0.4,1.5H986.7z M995.4,455.7c0.3-1.1,0.5-2.4,0.5-3.4
				c0-2.1-0.7-3.9-3.3-3.9c-2.9,0-4.7,3.2-5.7,7.3H995.4z"/>
			<path d="M1001.7,454c0.7-3.1,1.1-5.2,1.4-6.8h1.6c-0.1,0.6-0.2,1.7-0.7,3.7c1.5-2.7,3.8-4,6-4l-0.5,1.9c-3.6,0.2-5.8,3.1-6.6,6.7
				l-2.5,11.6h-1.7L1001.7,454z"/>
			<path d="M1013,447.2h1.7l-4.2,20h-1.7L1013,447.2z M1014.8,438.7h1.7l-0.8,3.9h-1.7L1014.8,438.7z"/>
			<path d="M1018.7,453.4c0.9-4.1,1.2-5.6,1.2-6.2h1.6c-0.1,0.6-0.3,1.9-0.6,3c1-1.8,2.5-3.3,5.2-3.3c2.6,0,4.8,1.7,3.8,6.4l-3,13.9
				h-1.7l2.9-13.7c0.6-3,0-5-2.5-5c-2.9,0-4.8,2.3-5.9,7.1l-2.4,11.6h-1.7L1018.7,453.4z"/>
			<path d="M1043.7,466.4c-1.1,5.1-2.6,8.6-7.4,8.6c-4.9,0-5.3-3.4-5.1-5.5h1.7c0,1.7,0.4,4,3.6,4c3.3,0,4.7-2.9,5.6-7l0.6-2.5
				c-1.1,2.1-2.7,3.3-5.1,3.3c-4.6,0-5-5.1-3.9-10.2c1.3-6.1,3.9-10.2,7.9-10.2c2.7,0,3.8,1.7,4,3.2c0.2-1,0.6-2.4,0.8-2.9h1.6
				c-0.2,0.8-0.7,3-1.3,5.6L1043.7,466.4z M1035.2,457.4c-0.9,4.6-0.7,8.3,2.5,8.3c3.7,0,5.4-4.5,6.2-8.5c1.2-5.7,0.6-8.7-2.7-8.7
				C1038.2,448.5,1036.2,452.4,1035.2,457.4z"/>
			<path d="M1054.9,468.1l13.3-28.2h1.6l-13.3,28.2H1054.9z"/>
			<path d="M156.7,488h5.4c4.8,0,6.7,3.6,5.7,8.2c-0.8,4.1-3.8,6.4-8.7,6.4h-3.7l-2.7,12.6h-1.7L156.7,488z M155.7,501h3.6
				c3.5,0,6.1-1.4,6.8-5.1c0.7-3.3-0.3-6.3-4.3-6.3h-3.8L155.7,501z"/>
			<path d="M170.7,502c0.7-3.1,1.1-5.2,1.4-6.8h1.6c-0.1,0.6-0.2,1.7-0.7,3.7c1.5-2.7,3.8-4,6-4l-0.5,1.9c-3.6,0.2-5.8,3.1-6.6,6.7
				l-2.5,11.6h-1.7L170.7,502z"/>
			<path d="M191.4,505.4c-1,5.3-3.2,10.2-8,10.2c-5,0-5.7-5.1-4.4-11c1.6-6.9,4.6-9.7,7.8-9.7C192.1,494.9,192.5,500.1,191.4,505.4z
				 M180.8,504.7c-1.2,5.4-0.7,9.3,2.8,9.3c3.4,0,5.1-4,6.1-8.6c0.9-4.1,1-8.9-2.9-8.9C184.4,496.5,182.1,499.1,180.8,504.7z"/>
			<path d="M211,486.7l-5,23.7c-0.4,1.7-0.8,3.5-1,4.9h-1.6c0-0.5,0.2-1.4,0.5-2.7c-1,1.7-2.4,3.1-5,3.1c-4.5,0-5.1-4.9-3.8-10.9
				c1-4.7,3.4-9.8,7.9-9.8c2.9,0,3.9,1.7,4.1,2.9l2.4-11.1H211z M196.6,505c-1,4.6-1.1,9.1,2.7,9.1c3.5,0,5.1-4,6.3-9.6
				c1.2-5.6,0.4-8-2.8-8C199.8,496.5,197.7,499.9,196.6,505z"/>
			<path d="M222.2,510c-0.5,2.3-0.9,4.3-1,5.2h-1.6c0-0.4,0.3-2.2,0.5-3c-1,2.1-2.6,3.3-5.1,3.3c-1.9,0-4.8-0.7-3.7-6l3-14.4h1.7
				l-3,13.9c-0.6,2.9-0.2,4.8,2.3,4.8c2.4,0,4.7-1.7,5.8-6.8l2.6-12h1.7L222.2,510z"/>
			<path d="M238.3,510c-0.9,2.8-2.7,5.6-6.4,5.6c-4.7,0-5.7-4.2-4.3-10.7c1.4-6.3,4-10,7.9-10c4,0,4.8,2.9,4.4,6.1h-1.7
				c0.3-2.7-0.4-4.5-2.9-4.5c-2.1,0-4.5,1.6-6,8.6c-1.2,5.6-0.5,8.9,2.7,8.9c2.2,0,3.7-1.4,4.7-4H238.3z"/>
			<path d="M242.7,495.2h3.1l1.2-5.6h1.6l-1.2,5.6h3.6l-0.3,1.5H247l-3,14.1c-0.4,1.7-0.4,3.1,1.4,3.1c0.9,0,1.4-0.2,1.8-0.2
				l-0.3,1.4c-0.5,0.2-1.2,0.3-2,0.3c-2.2,0-3.4-1.1-2.7-4.1l3.1-14.7h-3.1L242.7,495.2z"/>
			<path d="M263.3,488h4.5c6.3,0,8.4,5,6.4,14.4c-1.8,8.4-4.2,12.9-11.7,12.9h-5L263.3,488z M259.6,513.7h3.3c5.5,0,7.9-3,9.7-11.3
				c1.9-8.9,0.2-12.8-4.9-12.8h-3L259.6,513.7z"/>
			<path d="M278.8,505.2c-0.3,1.6-0.5,3.1-0.5,4.3c0,2.9,0.9,4.5,3.3,4.5c2.7,0,3.8-2.3,4.3-3.4h1.6c-0.6,1.7-2.3,5-6.2,5
				c-5.5,0-5.2-6.2-4.1-10.8c1.5-6.8,4.2-9.9,7.8-9.9c4.2,0,5.5,3.5,4.2,8.8l-0.4,1.5H278.8z M287.5,503.7c0.3-1.1,0.5-2.4,0.5-3.4
				c0-2.1-0.7-3.9-3.3-3.9c-2.9,0-4.7,3.2-5.7,7.3H287.5z"/>
			<path d="M292.8,510c-0.2,2.5,1.3,4,3.6,4c2.3,0,3.3-1.4,3.6-3c0.5-2.3-0.4-3.9-3-5.7c-3.1-2.2-4-3.7-3.4-6.7
				c0.6-2.6,2.6-3.8,4.9-3.8c3.8,0,4.8,2.9,4.6,5.2h-1.6c0.1-1.7-0.5-3.7-3.1-3.7c-1.4,0-2.7,0.7-3.1,2.5c-0.5,2.2,0.4,3.4,2.7,5
				c3.6,2.5,4.3,4.6,3.7,7.5c-0.6,2.5-2.5,4.1-5.4,4.1c-3.6,0-5.3-2.4-5-5.5H292.8z"/>
			<path d="M309.1,495.2h1.7l-4.2,20h-1.7L309.1,495.2z M310.9,486.7h1.7l-0.8,3.9h-1.7L310.9,486.7z"/>
			<path d="M323.2,514.4c-1.1,5.1-2.6,8.6-7.4,8.6c-4.9,0-5.3-3.4-5.1-5.5h1.7c0,1.7,0.4,4,3.6,4c3.3,0,4.7-2.9,5.6-7l0.6-2.5
				c-1.1,2.1-2.7,3.3-5.1,3.3c-4.6,0-5-5.1-3.9-10.2c1.3-6.1,3.9-10.2,7.9-10.2c2.7,0,3.8,1.7,4,3.2c0.2-1,0.6-2.4,0.8-2.9h1.6
				c-0.2,0.8-0.7,3-1.3,5.6L323.2,514.4z M314.7,505.4c-0.9,4.6-0.7,8.3,2.5,8.3c3.7,0,5.4-4.5,6.2-8.5c1.2-5.7,0.6-8.7-2.7-8.7
				C317.8,496.5,315.7,500.4,314.7,505.4z"/>
			<path d="M331.2,501.4c0.9-4.1,1.2-5.6,1.2-6.2h1.6c-0.1,0.6-0.3,1.9-0.6,3c1-1.8,2.5-3.3,5.2-3.3c2.6,0,4.8,1.7,3.8,6.4l-3,13.9
				h-1.7l2.9-13.7c0.6-3,0-5-2.5-5c-2.9,0-4.8,2.3-5.9,7.1l-2.4,11.6h-1.7L331.2,501.4z"/>
			<path d="M351,516.1l13.3-28.2h1.6l-13.3,28.2H351z"/>
			<path d="M374.9,515.3l0.6-27.2h1.7c-0.2,11.1-0.6,21.8-0.9,25.2h0c0.8-2.8,7.1-18.1,10-25.2h1.9c-0.1,6.8,0,22.4-0.4,25.2h0
				c1.3-3.7,7.5-18.3,10.3-25.2h1.7l-11.4,27.2h-2.1c0.1-6.5,0.1-21.2,0.4-25.2l0,0c-1.1,3.6-7,18.2-9.9,25.1H374.9z"/>
			<path d="M400.5,505.2c-0.3,1.6-0.5,3.1-0.5,4.3c0,2.9,0.9,4.5,3.3,4.5c2.7,0,3.8-2.3,4.3-3.4h1.6c-0.6,1.7-2.3,5-6.2,5
				c-5.5,0-5.2-6.2-4.1-10.8c1.5-6.8,4.2-9.9,7.8-9.9c4.2,0,5.5,3.5,4.2,8.8c0,0-0.4,1.5-0.4,1.5H400.5z M409.2,503.7
				c0.3-1.1,0.5-2.4,0.5-3.4c0-2.1-0.7-3.9-3.3-3.9c-2.9,0-4.7,3.2-5.7,7.3H409.2z"/>
			<path d="M418.7,486.6h1.6l-2.4,11.3c0.8-1.4,2.5-3,5-3c3.9,0,5.3,3.5,3.9,10.4c-1.4,6.5-3.9,10.2-7.7,10.2
				c-2.9,0-3.9-1.7-4.2-3.3c-0.2,1.1-0.6,2.3-0.8,3h-1.6c0.2-1,0.6-2.7,1.2-5.4L418.7,486.6z M425.2,505.2c1.3-6.2,0.3-8.7-2.6-8.7
				c-3.4,0-5.2,3.6-6.2,8.6c-1.2,5.7-0.5,8.9,2.9,8.9C421.9,514,424,510.9,425.2,505.2z"/>
			<path d="M442.8,488h4.5c6.3,0,8.4,5,6.4,14.4c-1.8,8.4-4.2,12.9-11.7,12.9h-5L442.8,488z M439,513.7h3.3c5.5,0,7.9-3,9.7-11.3
				c1.9-8.9,0.2-12.8-4.9-12.8h-3L439,513.7z"/>
			<path d="M458.2,505.2c-0.3,1.6-0.5,3.1-0.5,4.3c0,2.9,0.9,4.5,3.3,4.5c2.7,0,3.8-2.3,4.3-3.4h1.6c-0.6,1.7-2.3,5-6.2,5
				c-5.5,0-5.2-6.2-4.1-10.8c1.5-6.8,4.2-9.9,7.8-9.9c4.2,0,5.5,3.5,4.2,8.8l-0.4,1.5H458.2z M467,503.7c0.3-1.1,0.5-2.4,0.5-3.4
				c0-2.1-0.7-3.9-3.3-3.9c-2.9,0-4.7,3.2-5.7,7.3H467z"/>
			<path d="M472.2,510c-0.2,2.5,1.3,4,3.6,4c2.3,0,3.3-1.4,3.6-3c0.5-2.3-0.4-3.9-3-5.7c-3.1-2.2-4-3.7-3.4-6.7
				c0.6-2.6,2.6-3.8,4.9-3.8c3.8,0,4.8,2.9,4.6,5.2H481c0.1-1.7-0.5-3.7-3.1-3.7c-1.4,0-2.7,0.7-3.1,2.5c-0.5,2.2,0.4,3.4,2.7,5
				c3.6,2.5,4.3,4.6,3.7,7.5c-0.6,2.5-2.5,4.1-5.4,4.1c-3.6,0-5.3-2.4-5-5.5H472.2z"/>
			<path d="M488.5,495.2h1.7l-4.2,20h-1.7L488.5,495.2z M490.4,486.7h1.7l-0.8,3.9h-1.7L490.4,486.7z"/>
			<path d="M502.6,514.4c-1.1,5.1-2.6,8.6-7.4,8.6c-4.9,0-5.3-3.4-5.1-5.5h1.7c0,1.7,0.4,4,3.6,4c3.3,0,4.7-2.9,5.6-7l0.6-2.5
				c-1.1,2.1-2.7,3.3-5.1,3.3c-4.6,0-5-5.1-3.9-10.2c1.3-6.1,3.9-10.2,7.9-10.2c2.7,0,3.8,1.7,4,3.2c0.2-1,0.6-2.4,0.8-2.9h1.6
				c-0.2,0.8-0.7,3-1.3,5.6L502.6,514.4z M494.2,505.4c-0.9,4.6-0.7,8.3,2.5,8.3c3.7,0,5.4-4.5,6.2-8.5c1.2-5.7,0.6-8.7-2.7-8.7
				C497.2,496.5,495.2,500.4,494.2,505.4z"/>
			<path d="M510.7,501.4c0.9-4.1,1.2-5.6,1.2-6.2h1.6c-0.1,0.6-0.3,1.9-0.6,3c1-1.8,2.5-3.3,5.2-3.3c2.6,0,4.8,1.7,3.8,6.4l-3,13.9
				h-1.7l2.9-13.7c0.6-3,0-5-2.5-5c-2.9,0-4.8,2.3-5.9,7.1l-2.4,11.6h-1.7L510.7,501.4z"/>
			<path d="M530.4,516.1l13.3-28.2h1.6L532,516.1H530.4z"/>
			<path d="M557.1,488h1.7l-2.5,11.9h10l2.5-11.9h1.7l-5.8,27.2H563l2.9-13.8h-10l-2.9,13.8h-1.7L557.1,488z"/>
			<path d="M578.8,489.6h-6.1l0.4-1.6H587l-0.4,1.6h-6.1l-5.4,25.7h-1.7L578.8,489.6z"/>
			<path d="M603.7,502.7c1.1-5.3,2.3-10.3,2.9-13h0c-1.8,4-8.5,17.4-12.6,25.6h-1.9c-0.3-6.7-1.2-22.1-1.2-25.6h-0.1
				c-0.5,3.2-1.8,9-2.7,13.6l-2.5,12h-1.7l5.8-27.2h2.6c0.7,10.7,1.4,22.8,1.3,24.9h0c0.8-2.3,7.8-16,12.3-24.9h2.6l-5.8,27.2H601
				L603.7,502.7z"/>
			<path d="M614.3,488h1.7l-5.4,25.7h10.1l-0.6,1.6h-11.6L614.3,488z"/>
			<path d="M640.2,496.7v7.8h7.5v1.6h-7.5v8h-1.6v-8h-7.5v-1.6h7.5v-7.8H640.2z"/>
			<path d="M672.8,508.4c-0.9,3.1-2.8,7.3-7.7,7.3c-4.6,0-7.4-3.4-5.1-14.5c1.7-8.2,4.9-13.5,9.9-13.5c5.6,0,5.6,5.2,5.4,7.2h-1.7
				c0-1.8,0.1-5.6-3.8-5.6c-3.9,0-6.6,4.7-8.1,12c-2.1,10.3,0.3,12.8,3.5,12.8c3.7,0,5.3-4.1,5.7-5.7H672.8z"/>
			<path d="M677.3,508.3c0,3.7,1.7,5.7,4.9,5.7c2.6,0,4.5-1.5,5.1-4.4c0.6-2.7-0.2-5.2-3.9-8.1c-3.6-2.8-5.2-5.2-4.4-9
				c0.6-2.9,2.8-4.9,6.2-4.9c4.8,0,6.3,3.7,5.8,7.1h-1.7c0.2-2.8-0.7-5.5-4.4-5.5c-2.5,0-3.9,1.4-4.3,3.6c-0.5,2.8,0.4,4.6,3.8,7.3
				c4.4,3.6,5.3,6.3,4.5,9.8c-0.8,3.5-3.2,5.7-6.9,5.7c-5.3,0-6.6-3.7-6.5-7.3H677.3z"/>
			<path d="M693.7,508.3c0,3.7,1.7,5.7,4.9,5.7c2.6,0,4.5-1.5,5.1-4.4c0.6-2.7-0.2-5.2-3.9-8.1c-3.6-2.8-5.2-5.2-4.4-9
				c0.6-2.9,2.8-4.9,6.2-4.9c4.8,0,6.3,3.7,5.8,7.1h-1.7c0.2-2.8-0.7-5.5-4.4-5.5c-2.5,0-3.9,1.4-4.3,3.6c-0.5,2.8,0.4,4.6,3.8,7.3
				c4.4,3.6,5.3,6.3,4.5,9.8c-0.8,3.5-3.2,5.7-6.9,5.7c-5.3,0-6.6-3.7-6.5-7.3H693.7z"/>
			<path d="M714.3,516.1l13.3-28.2h1.6l-13.3,28.2H714.3z"/>
			<path d="M755,502.7c1.1-5.3,2.3-10.3,2.9-13h0c-1.8,4-8.5,17.4-12.6,25.6h-1.9c-0.3-6.7-1.2-22.1-1.2-25.6h-0.1
				c-0.5,3.2-1.8,9-2.7,13.6l-2.5,12h-1.7L741,488h2.6c0.7,10.7,1.4,22.8,1.3,24.9h0c0.8-2.3,7.8-16,12.3-24.9h2.6l-5.8,27.2h-1.7
				L755,502.7z"/>
			<path d="M773.2,505.4c-1,5.3-3.2,10.2-8,10.2c-5,0-5.7-5.1-4.4-11c1.6-6.9,4.6-9.7,7.8-9.7C773.8,494.9,774.3,500.1,773.2,505.4z
				 M762.6,504.7c-1.2,5.4-0.7,9.3,2.8,9.3c3.4,0,5.1-4,6.1-8.6c0.9-4.1,1-8.9-2.9-8.9C766.1,496.5,763.8,499.1,762.6,504.7z"/>
			<path d="M792.8,486.7l-5,23.7c-0.4,1.7-0.8,3.5-1,4.9h-1.6c0-0.5,0.2-1.4,0.5-2.7c-1,1.7-2.4,3.1-5,3.1c-4.5,0-5.1-4.9-3.8-10.9
				c1-4.7,3.4-9.8,7.9-9.8c2.9,0,3.9,1.7,4.1,2.9l2.4-11.1H792.8z M778.4,505c-1,4.6-1.1,9.1,2.7,9.1c3.5,0,5.1-4,6.3-9.6
				c1.2-5.6,0.4-8-2.8-8C781.6,496.5,779.5,499.9,778.4,505z"/>
			<path d="M794.8,505.2c-0.3,1.6-0.5,3.1-0.5,4.3c0,2.9,0.9,4.5,3.3,4.5c2.7,0,3.8-2.3,4.3-3.4h1.6c-0.6,1.7-2.3,5-6.2,5
				c-5.5,0-5.2-6.2-4.1-10.8c1.5-6.8,4.2-9.9,7.8-9.9c4.2,0,5.5,3.5,4.2,8.8l-0.4,1.5H794.8z M803.6,503.7c0.3-1.1,0.5-2.4,0.5-3.4
				c0-2.1-0.7-3.9-3.3-3.9c-2.9,0-4.7,3.2-5.7,7.3H803.6z"/>
			<path d="M807,515.3l6.1-28.5h1.7l-6.1,28.5H807z"/>
			<path d="M822.6,504.1l-0.4,1.6h-7.5l0.4-1.6H822.6z"/>
			<path d="M827.4,501.2c0.7-3.3,1-5,1.2-6h1.6c0,0.4-0.3,2.1-0.5,2.8c1-1.8,2.5-3.1,4.9-3.1c2,0,3.4,1.1,3.4,3.1
				c1-1.8,2.7-3.1,5.1-3.1c2.2,0,4.4,1.1,3.4,5.7l-3.1,14.6h-1.6l3-14.3c0.5-2.3,0.4-4.4-2.2-4.4c-2.9,0-4.6,3-5.2,5.8l-2.7,12.8
				h-1.7l3-14.2c0.6-2.9,0.2-4.5-2.1-4.5c-2.7,0-4.5,2.8-5.2,6l-2.7,12.6h-1.7L827.4,501.2z"/>
			<path d="M859.9,510.9c-0.2,1-0.7,3.4-0.8,4.4h-1.6c0.1-0.6,0.2-1.7,0.5-2.6c-1,2-2.8,3-5.1,3c-3.7,0-4.7-3.1-4-6.3
				c0.8-3.6,3.5-4.9,6.8-5.5c1.4-0.2,2.8-0.3,4.3-0.4l0.5-2.5c0.5-2.3,0.1-4.4-3.2-4.4c-2.3,0-3.5,1.3-4.1,3.8h-1.7
				c0.6-3.2,2.4-5.4,6-5.4c3.3,0,5.4,1.9,4.5,5.9L859.9,510.9z M859.7,504.8c-1.3,0.1-2.6,0.2-3.8,0.4c-2.6,0.4-4.7,1.4-5.4,4.3
				c-0.4,2,0.1,4.5,2.7,4.5c3.1,0,5-2.5,6-7.4L859.7,504.8z"/>
			<path d="M868.1,505.1c1.7-1.9,6.8-7.2,9.2-9.9h2c-2.4,2.7-4.7,5-7.2,7.6l3.7,12.4H874l-3.2-11.1c-0.7,0.7-2.4,2.4-3.1,3.1l-1.7,8
				h-1.7l6.1-28.5h1.7L868.1,505.1z"/>
			<path d="M882.4,495.2h1.7l-4.2,20h-1.7L882.4,495.2z M884.2,486.7h1.7l-0.8,3.9h-1.7L884.2,486.7z"/>
			<path d="M888.1,501.4c0.9-4.1,1.2-5.6,1.2-6.2h1.6c-0.1,0.6-0.3,1.9-0.6,3c1-1.8,2.5-3.3,5.2-3.3c2.6,0,4.8,1.7,3.8,6.4l-3,13.9
				h-1.7l2.9-13.7c0.6-3,0-5-2.5-5c-2.9,0-4.8,2.3-5.9,7.1l-2.4,11.6h-1.7L888.1,501.4z"/>
			<path d="M913.1,514.4c-1.1,5.1-2.6,8.6-7.4,8.6c-4.9,0-5.3-3.4-5.1-5.5h1.7c0,1.7,0.4,4,3.6,4c3.3,0,4.7-2.9,5.6-7l0.6-2.5
				c-1.1,2.1-2.7,3.3-5.1,3.3c-4.6,0-5-5.1-3.9-10.2c1.3-6.1,3.9-10.2,7.9-10.2c2.7,0,3.8,1.7,4,3.2c0.2-1,0.6-2.4,0.8-2.9h1.6
				c-0.2,0.8-0.7,3-1.3,5.6L913.1,514.4z M904.6,505.4c-0.9,4.6-0.7,8.3,2.5,8.3c3.7,0,5.4-4.5,6.2-8.5c1.2-5.7,0.6-8.7-2.7-8.7
				C907.6,496.5,905.6,500.4,904.6,505.4z"/>
			<path d="M924.3,516.1l13.3-28.2h1.6l-13.3,28.2H924.3z"/>
			<path d="M949.7,501.9l-2.8,13.4h-1.7L951,488h5.7c4.2,0,6.3,3,5.4,7.3c-0.8,4.3-3.6,5.3-5,5.8c2.4,1,3,3.3,2.2,7.2
				c-0.5,2.5-1.2,5.2-1.1,7h-1.6c0-0.1-0.5-0.3,1.2-7.6c0.8-3.9-0.2-5.8-4.1-5.8H949.7z M950.1,500.3h3.6c3.5,0,6-1.2,6.7-5
				c0.6-3.3-0.5-5.6-4.2-5.6h-3.8L950.1,500.3z"/>
			<path d="M965.4,505.2c-0.3,1.6-0.5,3.1-0.5,4.3c0,2.9,0.9,4.5,3.3,4.5c2.7,0,3.8-2.3,4.3-3.4h1.6c-0.6,1.7-2.3,5-6.2,5
				c-5.5,0-5.2-6.2-4.1-10.8c1.5-6.8,4.2-9.9,7.8-9.9c4.2,0,5.5,3.5,4.2,8.8l-0.4,1.5H965.4z M974.1,503.7c0.3-1.1,0.5-2.4,0.5-3.4
				c0-2.1-0.7-3.9-3.3-3.9c-2.9,0-4.7,3.2-5.7,7.3H974.1z"/>
			<path d="M979.4,510c-0.2,2.5,1.3,4,3.6,4c2.3,0,3.3-1.4,3.6-3c0.5-2.3-0.4-3.9-3-5.7c-3.1-2.2-4-3.7-3.4-6.7
				c0.6-2.6,2.6-3.8,4.9-3.8c3.8,0,4.8,2.9,4.6,5.2h-1.6c0.1-1.7-0.5-3.7-3.1-3.7c-1.4,0-2.7,0.7-3.1,2.5c-0.5,2.2,0.4,3.4,2.7,5
				c3.6,2.5,4.3,4.6,3.7,7.5c-0.6,2.5-2.5,4.1-5.4,4.1c-3.6,0-5.3-2.4-5-5.5H979.4z"/>
			<path d="M994.3,505.2c-0.3,1.6-0.5,3.1-0.5,4.3c0,2.9,0.9,4.5,3.3,4.5c2.7,0,3.8-2.3,4.3-3.4h1.6c-0.6,1.7-2.3,5-6.2,5
				c-5.5,0-5.2-6.2-4.1-10.8c1.5-6.8,4.2-9.9,7.8-9.9c4.2,0,5.5,3.5,4.2,8.8l-0.4,1.5H994.3z M1003.1,503.7c0.3-1.1,0.5-2.4,0.5-3.4
				c0-2.1-0.7-3.9-3.3-3.9c-2.9,0-4.7,3.2-5.7,7.3H1003.1z"/>
			<path d="M1017.7,510.9c-0.2,1-0.7,3.4-0.8,4.4h-1.6c0.1-0.6,0.2-1.7,0.5-2.6c-1,2-2.8,3-5.1,3c-3.7,0-4.7-3.1-4-6.3
				c0.8-3.6,3.5-4.9,6.8-5.5c1.4-0.2,2.8-0.3,4.3-0.4l0.5-2.5c0.5-2.3,0.1-4.4-3.2-4.4c-2.3,0-3.5,1.3-4.1,3.8h-1.7
				c0.6-3.2,2.4-5.4,6-5.4c3.3,0,5.4,1.9,4.5,5.9L1017.7,510.9z M1017.4,504.8c-1.3,0.1-2.6,0.2-3.8,0.4c-2.6,0.4-4.7,1.4-5.4,4.3
				c-0.4,2,0.1,4.5,2.7,4.5c3.1,0,5-2.5,6-7.4L1017.4,504.8z"/>
			<path d="M1024.8,502c0.7-3.1,1.1-5.2,1.4-6.8h1.6c-0.1,0.6-0.2,1.7-0.7,3.7c1.5-2.7,3.8-4,6-4l-0.5,1.9c-3.6,0.2-5.8,3.1-6.6,6.7
				l-2.5,11.6h-1.7L1024.8,502z"/>
			<path d="M1043.9,510c-0.9,2.8-2.7,5.6-6.4,5.6c-4.7,0-5.7-4.2-4.3-10.7c1.4-6.3,4-10,7.9-10c4,0,4.8,2.9,4.4,6.1h-1.7
				c0.3-2.7-0.4-4.5-2.9-4.5c-2.1,0-4.5,1.6-6,8.6c-1.2,5.6-0.5,8.9,2.7,8.9c2.2,0,3.7-1.4,4.7-4H1043.9z"/>
			<path d="M1054.5,486.7l-2.5,11.4c1-1.9,2.8-3.3,5.3-3.3c2.7,0,4.7,1.7,3.7,6.1l-3,14.2h-1.7l3-13.9c0.6-2.8,0.3-4.8-2.6-4.8
				c-3.1,0-5,2.9-5.8,7l-2.4,11.7h-1.7l6.1-28.5H1054.5z"/>
		</g>
	</g>
</g>
<rect x="1162.7" y="-98.8" style="fill:none;" width="4.9" height="0"/>
</svg>
