<?xml version="1.0" encoding="utf-8"?>
<!-- Generator: Adobe Illustrator 25.1.0, SVG Export Plug-In . SVG Version: 6.00 Build 0)  -->
<svg version="1.1" id="Layer_1" xmlns="http://www.w3.org/2000/svg" xmlns:xlink="http://www.w3.org/1999/xlink" x="0px" y="0px"
	 viewBox="0 0 72 72" style="enable-background:new 0 0 72 72;" xml:space="preserve">
<style type="text/css">
	.st0{fill:none;stroke:#000000;stroke-width:0.25;stroke-miterlimit:10;}
</style>
<path d="M24.6,25.9c0,0.9,0.7,1.7,1.7,1.7c0.5,0,0.9-0.2,1.2-0.5L24.6,25.9z"/>
<path d="M39.4,25.9c0,0.9-0.7,1.7-1.7,1.7c-0.5,0-0.9-0.2-1.2-0.5L39.4,25.9z"/>
<polyline class="st0" points="30.7,30.6 31.8,28.4 32.9,30.6 "/>
<path d="M64.5,51.3l-16.4-1.1l15.3-3.3l-7.6-8.7l3.3-1.1L54.7,36l3.3-5.5l-5.5-1.1l6.5-8.7l-8.7,2.2l2.2-3.3l-3.3,2.2l4.4-13.1
	l-9.8,8.7l3.3-6.5l-4.4,5.5l2.2-5.5l-3.3,5.5V2.2l-3.3,14.2l-1.1-5.5l-1.1,5.5L31.8,0v15.3l-3.3-8.7v7.6L28.3,14L22,5.5v13.1
	l-4.4-3.3l1.1,4.4l-9.8-2.2l3.3,9.8l-3.3,2.2l2.2,3.3l-6.5,7.6l8.7,3.3L8.9,56.7l5.5-10.9L11,58.9l13.1-5.5l-1.1,12l3.3-10.9L47,72
	L46,53.5L64.5,51.3z M46.2,70.2l-20.2-17l-1.4,4.6l0.5-5.5l-12.9,5.4l4.6-18.5l-3.7,7.4l1.1-3.3L5.8,40l6.2-7.2L10,29.7l3.1-2.1
	l-3-9.1l9.7,2.2l-0.9-3.5l3.9,2.9V7.8l6.5,8.7v-5.7l3.3,8.7V6l3.7,13.8l1-4.9l1,5.2l2.5-11v9.9L40,21l3-3.8l-1.8,3.6l10.7-9.5
	l-4.2,12.5l1.9-1.3l-1.1,1.7l8.6-2.1l-6,8l5.6,1.1l-3.2,5.4l2.8,0.7l-1.8,0.6l7.5,8.6l-19.5,4.2l13.5,0.9l-10.8,1.3L46.2,70.2z"/>
</svg>
