<?xml version="1.0" encoding="utf-8"?>
<!-- Generator: Adobe Illustrator 25.1.0, SVG Export Plug-In . SVG Version: 6.00 Build 0)  -->
<svg version="1.1" id="Layer_1" xmlns="http://www.w3.org/2000/svg" xmlns:xlink="http://www.w3.org/1999/xlink" x="0px" y="0px"
	 viewBox="0 0 72 72" style="enable-background:new 0 0 72 72;" xml:space="preserve">
<path d="M62.4,36.1c-3.9-13.6-11.7-8.7-8.7-20.4C56.5,4,38.1,0,35.1,0c-2.9,0-17.4-1-21.4,9.2c-3.1,7.7,1.5,7.7-1.5,33.7
	C8.7,72.8,29.1,72,35.1,72C65.8,72,66.1,49.2,62.4,36.1z M35.1,70.9l-1,0c-5.3,0-11.9-0.7-16.5-5.8c-4.1-4.6-5.6-12-4.4-22.1
	c1.7-14.4,1.1-20.8,0.7-25.1c-0.3-3.4-0.5-5.1,0.8-8.3C17,4,23.1,1.1,32.8,1.1c0.6,0,1.1,0,1.5,0l0.8,0c1.7,0,11.8,2,15.9,7.3
	c1.6,2.1,2.1,4.4,1.5,7c-1.7,6.6-0.1,8.5,2.7,11.1c1.9,1.8,4.4,4,6,9.9c1.1,3.7,4,16.6-2.7,25.5C54.1,67.9,46.2,70.9,35.1,70.9z"/>
<circle cx="26" cy="33.7" r="1.5"/>
<circle cx="44.3" cy="33.7" r="1.5"/>
<path d="M30.5,35.2c0.9,1.6,2.6,2.7,4.6,2.7c2,0,3.7-1.1,4.6-2.7H30.5z"/>
</svg>
